<svg id="Layer_1" enable-background="new 0 0 497.237 497.237" height="512" viewBox="0 0 497.237 497.237" width="512" xmlns="http://www.w3.org/2000/svg"><g><ellipse cx="321.54" cy="242.718" fill="#82b339" rx="62.067" ry="62.054" transform="matrix(.945 -.328 .328 .945 -61.814 118.864)"/><g><ellipse cx="314.735" cy="163.182" fill="#fc435f" rx="61.121" ry="61.108"/><path d="m375.377 155.542c-4.22-33.484-34.792-57.208-68.283-52.988-4.296.541-8.428 1.522-12.364 2.881 21.269 7.379 37.642 26.263 40.647 50.107 3.679 29.189-13.884 56.154-40.636 65.387 8.599 2.983 17.994 4.096 27.636 2.881 33.491-4.219 57.22-34.784 53-68.268z" fill="#eb2f4b"/><path d="m286.507 117.563-16.283-26.596 28.242 10.636 31.673-11.674-14.806 24.002 14.967 18.24-28.189-1.647-24.541 18.725z" fill="#aad667"/></g><g><path d="m142.329 50.465c-19.837 3.888-35.015 18.109-41.097 35.991-12.384-14.262-31.808-21.701-51.644-17.812-29.538 5.79-48.779 34.476-42.978 64.072s34.449 48.895 63.986 43.105c19.836-3.888 35.015-18.109 41.097-35.991 12.383 14.262 31.807 21.701 51.644 17.812 29.537-5.79 48.778-34.476 42.977-64.072s-34.449-48.895-63.985-43.105z" fill="#82b339"/><path d="m164.163 97.279c-3.25.637-6.369 1.56-9.356 2.711-12.224-17.786-34.203-27.6-56.694-23.191-22.461 4.403-39.092 21.748-43.723 42.795-3.055.084-6.142.407-9.24 1.015-30.223 5.924-49.912 35.277-43.975 65.56 5.906 30.127 34.947 49.816 65.004 44.186l11.141 56.839c6.48 33.059 38.48 54.616 71.473 48.149 32.993-6.467 54.486-38.51 48.006-71.569l-11.139-56.827c30.223-5.924 49.912-35.277 43.975-65.56-5.936-30.285-35.249-50.032-65.472-44.108z" fill="#aad667"/><g fill="#99c94f"><path d="m229.635 141.386c-5.936-30.284-35.249-50.031-65.472-44.106-3.225.632-6.32 1.547-9.287 2.686 17.308 6.681 30.921 21.843 34.759 41.421 5.936 30.284-13.752 59.636-43.975 65.56l11.139 56.827c5.918 30.191-11.5 59.522-39.696 69.313 9.853 3.443 20.713 4.408 31.689 2.257 32.993-6.467 54.486-38.51 48.006-71.569l-11.139-56.827c30.224-5.926 49.913-35.278 43.976-65.562z"/><path d="m114.807 99.99c2.987-1.151 6.106-2.074 9.356-2.711 10.638-2.085 21.159-.979 30.592 2.637-12.234-17.74-34.182-27.521-56.641-23.118-3.226.632-6.327 1.54-9.294 2.678 10.459 4.04 19.569 11.175 25.987 20.514z"/></g><path d="m162.327 162.957c2.308-3.439 1.39-8.099-2.051-10.406-3.439-2.308-8.098-1.389-10.406 2.051-6.088 9.076-14.737 15.78-24.823 19.367l-7.137-36.413c-.797-4.063-4.736-6.704-8.803-5.918-4.065.797-6.714 4.738-5.918 8.803l7.137 36.412c-10.694.485-21.235-2.454-30.298-8.56-3.436-2.315-8.096-1.405-10.41 2.029-2.314 3.436-1.406 8.096 2.029 10.41 10.925 7.36 23.504 11.18 36.366 11.18 1.736 0 3.477-.087 5.22-.227l6.261 31.943c-5.389-.299-10.623-2.044-15.227-5.146-3.436-2.313-8.096-1.404-10.411 2.03-2.313 3.436-1.405 8.097 2.03 10.411 7.583 5.107 16.313 7.758 25.241 7.758.436 0 .874-.019 1.311-.032l10.101 51.533c.702 3.578 3.839 6.059 7.353 6.059.478 0 .964-.046 1.45-.141 4.065-.797 6.714-4.738 5.918-8.803l-10.101-51.533c8.79-3.29 16.328-9.215 21.67-17.179 2.308-3.439 1.39-8.099-2.051-10.406-3.438-2.307-8.099-1.39-10.406 2.051-3.092 4.609-7.28 8.202-12.157 10.513l-6.261-31.943c14.014-4.445 26.044-13.427 34.373-25.843z" fill="#82b339"/></g><g><path d="m484.701 43.611c-2.451-.952-4.977-1.372-7.452-1.32.119-.28.242-.558.353-.844 6.054-15.569-1.662-33.097-17.234-39.149-10.935-4.25-22.83-1.705-31.045 5.575-2.077-2.625-4.855-4.752-8.201-6.052-10.02-3.894-21.3 1.07-25.196 11.087-2.267 5.83-1.529 12.084 1.456 17.064-7.549 2.992-13.881 8.991-17.055 17.155-6.054 15.569 1.662 33.096 17.234 39.148 5.377 2.09 10.987 2.537 16.278 1.587l-19.009 93.63 26.311 5.101 17.672-86.736c1.929 2.058 4.337 3.728 7.143 4.818 10.02 3.894 21.3-1.07 25.196-11.088 1.741-4.476 1.708-9.202.25-13.41 9.811 3.332 20.598-1.628 24.389-11.378 3.895-10.016-1.07-21.294-11.09-25.188z" fill="#aad667"/><g><path d="m420.368 2.299c3.178 1.235 6.023 2.955 8.496 5.032-2.022-2.373-4.633-4.301-7.742-5.509-2.554-.993-5.189-1.403-7.764-1.308 2.351.31 4.702.887 7.01 1.785z" fill="#aad667" stroke="#99c94f" stroke-miterlimit="10"/><path d="m484.701 43.611c-2.451-.953-4.977-1.372-7.452-1.32.119-.28.242-.558.353-.844 6.054-15.569-1.662-33.096-17.234-39.149-10.894-4.234-22.739-1.72-30.95 5.497 9.244 8.15 12.911 21.498 8.184 33.652-.111.286-.234.563-.353.844 2.475-.052 5.001.368 7.452 1.32 10.02 3.894 14.985 15.172 11.089 25.19-3.791 9.75-14.578 14.709-24.389 11.378 1.458 4.208 1.49 8.934-.25 13.41-3.352 8.62-12.171 13.48-20.95 12.193l-15.371 75.711 26.311 5.101 17.672-86.736c1.929 2.058 4.338 3.728 7.143 4.818 10.02 3.894 21.3-1.07 25.196-11.087 1.74-4.476 1.708-9.202.25-13.41 9.811 3.332 20.598-1.628 24.389-11.378 3.895-10.018-1.07-21.296-11.09-25.19z" fill="#99c94f"/></g><g><path d="m451.731 204.708c1.772 45.781-54.255 169.765-79.606 164.85s-31.745-141-12.199-182.648c8.94-19.049 27.806-33.418 53.158-28.504 25.351 4.915 37.833 25.276 38.647 46.302z" fill="#fd9e35"/><path d="m451.731 204.708c-.814-21.026-13.296-41.387-38.647-46.302-11.037-2.14-20.844-.622-29.139 3.344 18.077 7.898 27.098 25.19 27.786 42.958 1.288 33.266-27.941 107.811-53.745 144.201 3.703 11.798 8.44 19.544 14.139 20.649 25.351 4.914 81.378-119.069 79.606-164.85z" fill="#fd8500"/><path d="m383.058 219.768-30.347-5.884c-4.077-.784-8.003 1.87-8.791 5.936s1.869 8.002 5.936 8.791l30.347 5.884c.482.093.963.138 1.436.138 3.52 0 6.66-2.489 7.355-6.073.788-4.067-1.87-8.003-5.936-8.792z" fill="#f27f00"/><path d="m349.005 271.13 29.868 5.79" fill="#fd9e35"/></g></g><g><ellipse cx="231.54" cy="242.718" fill="#fc435f" rx="62.067" ry="62.054" transform="matrix(.945 -.328 .328 .945 -66.791 89.35)"/><path d="m242.553 181.646c-10.749-1.936-21.345-.969-30.998 2.325 28.611 9.701 46.589 39.122 41.067 69.75-4.144 22.982-20.454 40.702-41.096 47.745 2.897.982 5.901 1.766 9.002 2.325 33.734 6.077 66.012-16.341 72.094-50.07s-16.335-65.999-50.069-72.075z" fill="#eb2f4b"/><path d="m221.975 187.977-7.824-31.217 24.527 19.187 34.797-1.727-21.991 19.072 9.107 22.581-27.251-10.317-29.948 10.871z" fill="#aad667"/></g><g><path d="m.119 225.871h82.496v271.366h-82.496z" fill="#8f5a46"/><path d="m414.623 225.871h82.496v271.366h-82.496z" fill="#8f5a46"/><g><path d="m.119 265.254h497v66.473h-497z" fill="#e8b266"/><path d="m457.118 265.254h40v66.473h-40z" fill="#d9a359"/><path d="m.119 331.758h497v66.473h-497z" fill="#ffdeb0"/><path d="m457.118 331.758h40v66.473h-40z" fill="#f7c783"/><path d="m.119 398.23h497v66.473h-497z" fill="#e8b266"/><path d="m457.118 398.23h40v66.473h-40z" fill="#d9a359"/></g><g><g><path d="m41.366 305.99c9.652 0 9.668-15 0-15-9.651 0-9.667 15 0 15z" fill="#8f5a46"/></g><g><path d="m41.366 372.494c9.652 0 9.668-15 0-15-9.651 0-9.667 15 0 15z" fill="#8f5a46"/></g><g><path d="m41.366 439.056c9.652 0 9.668-15 0-15-9.651 0-9.667 15 0 15z" fill="#8f5a46"/></g></g><g><g><path d="m454.097 305.99c9.652 0 9.668-15 0-15-9.651 0-9.667 15 0 15z" fill="#8f5a46"/></g><g><path d="m454.097 372.494c9.652 0 9.668-15 0-15-9.651 0-9.667 15 0 15z" fill="#8f5a46"/></g><g><path d="m454.097 439.056c9.652 0 9.668-15 0-15-9.651 0-9.667 15 0 15z" fill="#8f5a46"/></g></g></g></g></svg>