<svg id="Capa_1" enable-background="new 0 0 512 512" height="512" viewBox="0 0 512 512" width="512" xmlns="http://www.w3.org/2000/svg"><g><path d="m232 32h-32c-4.418 0-8 3.582-8 8v24c0 4.418 3.582 8 8 8h56z" fill="#ff5f7a"/><path d="m232 48v-16h24v48h-56c-4.418 0-8-3.582-8-8v-8h24c8.837 0 16-7.163 16-16z" fill="#fb4455"/><path d="m248 136h16v-104c0-4.418-3.582-8-8-8-4.418 0-8 3.582-8 8z" fill="#ffd18d"/><path d="m241.247 127.81 105.514 64.19h-226.761z" fill="#ff5f7a"/><path d="m311.273 192-70.026-64.19 11.01-5.829c2.341-1.24 5.145-1.24 7.486 0l132.257 70.019z" fill="#fb4455"/><path d="m152 344v-144h208v144h104v136h-416v-136z" fill="#ffd18d"/><path d="m112.697 392v64h-24.697v-56c0-4.418 3.582-8 8-8z" fill="#a5e3f0"/><path d="m104 408c0-4.418-3.582-8-8-8h-8v-8c0-4.418 3.582-8 8-8h16c4.418 0 8 3.582 8 8v64h-16z" fill="#7ad7ee"/><path d="m306.435 256v64h-26.435v-56c0-4.418 3.582-8 8-8z" fill="#a5e3f0"/><path d="m296 272c0-4.418-3.582-8-8-8h-8v-8c0-4.418 3.582-8 8-8h16c4.418 0 8 3.582 8 8v64h-16z" fill="#7ad7ee"/><path d="m152 200h208v32h-208z" fill="#fbbd80" transform="matrix(-1 0 0 -1 512 432)"/><path d="m344 344h24.296v-128l-24.296 16z" fill="#ffe09c"/><path d="m344 232v-16h32v128h-16v-96c0-8.837-7.163-16-16-16z" fill="#ffd18d"/><path d="m136 344h24.843v-128l-24.843 16z" fill="#ffe09c"/><path d="m136 232v-16h32v128h-16v-96c0-8.837-7.163-16-16-16z" fill="#ffd18d"/><path d="m128 208h256v-16c0-4.418-3.582-8-8-8h-248c-4.418 0-8 3.582-8 8v8c0 4.418 3.582 8 8 8z" fill="#ffefac"/><path d="m368 200c4.418 0 8-3.582 8-8v-8h8c4.418 0 8 3.582 8 8v16c0 4.418-3.582 8-8 8h-256c-4.418 0-8-3.582-8-8v-8z" fill="#ffe09c"/><path d="m226.435 256v64h-26.435v-56c0-4.418 3.582-8 8-8z" fill="#a5e3f0"/><path d="m216 272c0-4.418-3.582-8-8-8h-8v-8c0-4.418 3.582-8 8-8h16c4.418 0 8 3.582 8 8v64h-16z" fill="#7ad7ee"/><path d="m416.697 392v64h-24.697v-56c0-4.418 3.582-8 8-8z" fill="#a5e3f0"/><path d="m408 408c0-4.418-3.582-8-8-8h-8v-8c0-4.418 3.582-8 8-8h16c4.418 0 8 3.582 8 8v64h-16z" fill="#7ad7ee"/><path d="m296 392v64h-80v-64c0-4.418 3.582-8 8-8h24l8.625 4.524 7.375-4.524h24c4.418 0 8 3.582 8 8z" fill="#ff5f7a"/><path d="m248 384h16v72h-16z" fill="#fb4455" transform="matrix(-1 0 0 -1 512 840)"/><path d="m48 448h416v32h-416z" fill="#c9c5c9" transform="matrix(-1 0 0 -1 512 928)"/><path d="m48 344h416v24h-416z" fill="#fbbd80" transform="matrix(-1 0 0 -1 512 712)"/><path d="m328 480h24v-122.752l-24 10.752z" fill="#ffe09c"/><path d="m328 368v-21.612h32v133.612h-16v-96c0-8.837-7.163-16-16-16z" fill="#ffd18d"/><path d="m152 480h24v-122.752l-24 10.752z" fill="#ffe09c"/><path d="m152 368v-21.612h32v133.612h-16v-96c0-8.837-7.163-16-16-16z" fill="#ffd18d"/><path d="m24 480h24v-122.752l-24 10.752z" fill="#ffe09c"/><path d="m24 368v-21.612h32v133.612h-16v-96c0-8.837-7.163-16-16-16z" fill="#ffd18d"/><path d="m456 480h24v-122.752l-24 10.752z" fill="#ffe09c"/><path d="m456 368v-21.612h32v133.612h-16v-96c0-8.837-7.163-16-16-16z" fill="#ffd18d"/><path d="m16 344h480v-16c0-4.418-3.582-8-8-8h-472c-4.418 0-8 3.582-8 8v8c0 4.418 3.582 8 8 8z" fill="#ffefac"/><path d="m480 336c4.418 0 8-3.582 8-8v-8h8c4.418 0 8 3.582 8 8v16c0 4.418-3.582 8-8 8h-480c-4.418 0-8-3.582-8-8v-8z" fill="#ffe09c"/><path d="m263.844 284.412 104.452 58.754c4.233 2.381 2.543 8.833-2.314 8.833h-219.964c-4.857 0-6.547-6.452-2.314-8.833l104.452-58.754c4.87-2.739 10.818-2.739 15.688 0z" fill="#ffe09c"/><path d="m8 488h496c4.422 0 8-3.582 8-8s-3.578-8-8-8h-496c-4.422 0-8 3.582-8 8s3.578 8 8 8z" fill="#dbd8db"/><path d="m256 298.359 66.914 37.641h-133.828z" fill="#ffefac"/></g></svg>