<svg height="512" viewBox="0 0 512 512" width="512" xmlns="http://www.w3.org/2000/svg"><g id="Flat"><path d="m312 224v32c0 48-48 40-48 56v-80h-44a36 36 0 1 1 28.18-58.4c21.08-5.28992 40.72992-2.86 47.82 18.4 16 0 16 8 16 32z" fill="#f57a08"/><path d="m163.16 379.09c33.12-49.9401 65.51-52.1901 74.42-61.35a7.77771 7.77771 0 0 0 2.42-5.74c0-16-32-8-32-48v-34.05a35.87414 35.87414 0 0 0 12 2.05c20 0 44-16 60-8 10.12 5.06006 0 24 16 24 0 0 0-8 8-8s8 12 8 16c0 8-7.35 10.86-16 16 0 24-32 24-32 40a7.66647 7.66647 0 0 0 1.72 4.96c8.05 10.16 43.17 10.86011 78.28 67.04z" fill="#f5a971"/><path d="m225.8061 324.66166q.37614-.1776.74389-.3516c4.95-2.3501 8.75-4.2301 11.03-6.57007l14.14001 10.26001 14-11.04c2.11011 2.66 6.07007 4.67 11.41 7.2q.52295.24792 1.06328.5028v68.5037l-51.64329-.229z" fill="#b1cdb4"/><path d="m255.138 344 7.151 36.275-10.289 18.6-10.874-18.6 7.184-36.275z" fill="#435e99"/><path d="m237.58 317.74 14.14 10.26-11.72 8-13.45-11.68994c4.95-2.35006 8.75-4.23006 11.03-6.57006z" fill="#e7f2da"/><path d="m277.13 324.15991-13.13 11.84009-12.28-8 14-11.04c2.11008 2.66 6.07 4.67 11.41 7.19991z" fill="#e7f2da"/><path d="m244.897 332.69 3.413 11.31h6.828l3.414-11.31-6.832-4.69z" fill="#537ec2"/><path d="m240 276c-8.67285 0-13.21094-6.03662-13.21094-12a11.5935 11.5935 0 0 1 3.50733-8.36084 13.41027 13.41027 0 0 1 9.70361-3.63916 4 4 0 0 1 0 8 5.75985 5.75985 0 0 0 -4.11279 1.36084 3.65619 3.65619 0 0 0 -1.09815 2.63916c0 1.84521 1.36475 4 5.21094 4a4 4 0 0 1 0 8z" fill="#e37066"/><circle cx="220" cy="252" fill="#0a4b69" r="4"/><circle cx="260" cy="252" fill="#0a4b69" r="4"/><path d="m214.82842 244h14.76107a2.41051 2.41051 0 0 0 2.41051-2.41051 2.41052 2.41052 0 0 0 -1.461-2.21561l-7.5607-3.2403a8 8 0 0 0 -8.80821 1.69631l-1.34169 1.34169a2.82842 2.82842 0 0 0 -.82843 2 2.82842 2.82842 0 0 0 2.82845 2.82842z" fill="#f57a08"/><path d="m265.17158 244h-14.76107a2.41051 2.41051 0 0 1 -2.41051-2.41051 2.41052 2.41052 0 0 1 1.461-2.21561l7.5607-3.2403a8 8 0 0 1 8.80821 1.69631l1.34169 1.34169a2.82842 2.82842 0 0 1 .82843 2 2.82842 2.82842 0 0 1 -2.82845 2.82842z" fill="#f57a08"/><path d="m248 292a4 4 0 0 1 0-8c6.2832 0 9.43408-3.12354 13.08252-6.74023l.10156-.10059a4 4 0 1 1 5.63184 5.68164l-.10156.10059c-4.07129 4.03613-9.13819 9.05859-18.71436 9.05859z" fill="#e37066"/><path d="m200 200a4.0002 4.0002 0 0 1 -4-4 24.0782 24.0782 0 0 1 19.20117-23.51758 4 4 0 0 1 1.59766 7.83887 16.05179 16.05179 0 0 0 -12.79883 15.67871 4.0002 4.0002 0 0 1 -4 4z" fill="#f3b73f"/><path d="m207.99707 215.99023a3.97962 3.97962 0 0 1 -2.40186-.80371 24.1393 24.1393 0 0 1 -4.78173-4.78173 3.99991 3.99991 0 1 1 6.39257-4.80958 16.142 16.142 0 0 0 3.19874 3.19874 4 4 0 0 1 -2.40772 7.19628z" fill="#f3b73f"/><path d="m259.751 195.561a4.00054 4.00054 0 0 1 -3.97073-3.561 35.75429 35.75429 0 0 0 -4.4414-13.77441 4.00014 4.00014 0 1 1 6.96093-3.94336 43.7007 43.7007 0 0 1 5.43165 16.83886 4.00578 4.00578 0 0 1 -3.98045 4.43991z" fill="#e34e03"/><path d="m392 189.5v34.5h-40s-8-8-8-24c0-8 0-16 8-24 7.49-7.49 15.73 1.46 9.48 13.5z" fill="#f5a971"/><path d="m224 328-40 40c-50.44995-7.21-68.43994-53.37-71.5-80h-7.75v-32h31.25c0-16 0-8-8-24s8-24 16-8c6.99 13.99 7.87 15.75 7.98 32 .02 2.34.02 4.98.02 8 0 24 16 64 72 64z" fill="#f5a971"/><path d="m224 328-40 40c-50.44995-7.21-68.43994-53.37-71.5-80h15.5c8 0 24-8 24-24 0 24 16 64 72 64z" fill="#0a4b69"/><path d="m376 424v40h-235.25v-24a167.19988 167.19988 0 0 1 19.25-56c20.17993-32.29 40.36-46.25 55.4-54.21 3.83-2.03 7.33-3.67 10.41-5.12012l26.19 67.33012 26.18994-67.33008c3.08006 1.45008 6.58006 3.09008 10.41006 5.12008 15.04 7.96 35.22007 21.92 55.4 54.21 0 0 16 24 24 40z" fill="#0a4b69"/><path d="m296 352-16 8v16l-28 32-28-32v-16l-16-8 7.4-22.21c3.83-2.03 7.33-3.67 10.41-5.12012l26.19 67.33012 26.18994-67.33008c3.08006 1.45008 6.58006 3.09008 10.41006 5.12008z" fill="#0e638b"/><path d="m192 466a4.0002 4.0002 0 0 1 -4-4v-70a4 4 0 0 1 8 0v70a4.0002 4.0002 0 0 1 -4 4z" fill="#133852"/><path d="m312 466a4.0002 4.0002 0 0 1 -4-4v-70a4 4 0 0 1 8 0v70a4.0002 4.0002 0 0 1 -4 4z" fill="#133852"/><path d="m400 384v40h-24c-15.68994 0-23.68994-7.7-31.54-23.09009a101.224 101.224 0 0 1 7.54-8.90991c8-8 8-8 16-8z" fill="#f5a971"/><path d="m376 424c-15.69211 0-23.68915-7.69507-31.53811-23.08521l-18.68064 26.41333 21.82733 28.67188h20.39142z" fill="#0a4b69"/><path d="m40 160h96v136h-96z" fill="#f0cd81"/><g fill="#f3b73f"><path d="m96 188h-8a4 4 0 0 1 0-8h8a4 4 0 0 1 0 8z"/><path d="m120 188h-8a4 4 0 0 1 0-8h8a4 4 0 0 1 0 8z"/><path d="m80 212h-24a4 4 0 0 1 0-8h24a4 4 0 0 1 0 8z"/><path d="m120 212h-24a4 4 0 0 1 0-8h24a4 4 0 0 1 0 8z"/><path d="m88 236h-32a4 4 0 0 1 0-8h32a4 4 0 0 1 0 8z"/><path d="m120 236h-16a4 4 0 0 1 0-8h16a4 4 0 0 1 0 8z"/><path d="m80 260h-24a4 4 0 0 1 0-8h24a4 4 0 0 1 0 8z"/><path d="m120 260h-24a4 4 0 0 1 0-8h24a4 4 0 0 1 0 8z"/><path d="m120 284h-24a4 4 0 0 1 0-8h24a4 4 0 0 1 0 8z"/></g><path d="m392 416-36.70644-44.04773a5.63362 5.63362 0 0 1 .34429-7.59012 5.63362 5.63362 0 0 1 8.31143.377l36.05072 43.26085z" fill="#b1cdb4"/><path d="m347.60858 396.94794c1.60465-1.95333 3.10195-3.65847 4.39142-4.94794 8-8 8-8 16-8 12 0 12 16 0 16-8 0-8 8-8 8z" fill="#f5a971"/><path d="m360 412.02344a4.02 4.02 0 0 1 -4-4.02344c0-4.82373 3.1958-12 12-12a6.46524 6.46524 0 0 0 2.86523-.58105 3.99988 3.99988 0 1 1 3.53418 7.17675 14.35537 14.35537 0 0 1 -6.39941 1.4043c-3.22168 0-3.95361 2.20117-4.00049 4.04736a3.97943 3.97943 0 0 1 -3.99951 3.97608z" fill="#e37066"/><path d="m448 456h-80l24-112h80z" fill="#03999c"/><path d="m432 328a8 8 0 0 1 8 8v8a0 0 0 0 1 0 0h-16a0 0 0 0 1 0 0v-8a8 8 0 0 1 8-8z" fill="#b1cdb4"/><path d="m358.297 137.834h48v80h-48z" fill="#537ec2" transform="matrix(.406 -.914 .914 .406 64.641 455.09)"/><path d="m366.298 145.834h32v64h-32z" fill="#b1cdb4" transform="matrix(.406 -.914 .914 .406 64.642 455.091)"/><path d="m388.726 191.64893a28.41092 28.41092 0 0 1 -11.29785-2.84717c-7.87647-3.49658-12.15723-7.82373-13.08594-13.22852-.81592-4.74707 1.16992-9.21972 2.92188-13.166a3.99986 3.99986 0 1 1 7.31152 3.24609c-1.4165 3.19092-2.75439 6.20508-2.34912 8.56494.43506 2.52979 3.27685 4.97656 8.44775 7.272s8.89258 2.76221 11.06006 1.38819c2.02246-1.28223 3.36035-4.2959 4.77686-7.48682a3.99986 3.99986 0 1 1 7.31152 3.2461c-1.75146 3.9458-3.73682 8.41845-7.80518 10.99755a13.30521 13.30521 0 0 1 -7.2915 2.01364z" fill="#0a4b69"/><path d="m136 408h16c24 0 24 16 24 32h-40z" fill="#f5a971"/><path d="m160 444c-4.49609 0-7.89111-1.97119-9.31494-5.4082-2.00488-4.84131.41992-11.35352 6.48633-17.42041a4.00026 4.00026 0 0 1 5.65722 5.65722c-4.42138 4.4209-5.11474 7.82666-4.75244 8.70166.08106.19483.731.46973 1.92383.46973a4 4 0 0 1 0 8z" fill="#e37066"/><rect fill="#0e638b" height="72" rx="4" transform="matrix(1 -.003 .003 1 -1.093 .646)" width="8" x="248.092" y="392"/><path d="m461.78433 64v48a8 8 0 0 1 -8 8h-48l-24 24v-24h-8a8 8 0 0 1 -8-8v-48a8 8 0 0 1 8-8h80a8 8 0 0 1 8 8z" fill="#db6373"/><path d="m413.78433 76h-16a4 4 0 0 1 0-8h16a4 4 0 0 1 0 8z" fill="#bf4958"/><path d="m445.78433 76h-16a4 4 0 0 1 0-8h16a4 4 0 0 1 0 8z" fill="#bf4958"/><path d="m405.78433 92h-24a4 4 0 0 1 0-8h24a4 4 0 0 1 0 8z" fill="#bf4958"/><path d="m445.78433 92h-24a4 4 0 0 1 0-8h24a4 4 0 0 1 0 8z" fill="#bf4958"/><path d="m429.78433 108h-48a4 4 0 0 1 0-8h48a4 4 0 0 1 0 8z" fill="#bf4958"/><rect fill="#795033" height="16" rx="8" width="464" x="24" y="456"/><path d="m362.5 213.5h-16.36a41.662 41.662 0 0 1 -2.14-13.5c0-8 0-16 8-24s16.86 2.76 8 16c-5.25 11.5 6.5 11.88 2.5 21.5z" fill="#f5a971"/><path d="m363.61712 217.501a3.99 3.99 0 0 1 -1.53369-.30713c-2.04-.84815-4.12493-3.189-3.27728-5.229 1.07813-2.59375.49073-3.4873-1.0791-5.87451a16.63365 16.63365 0 0 1 -2.93408-6.57471 3.99984 3.99984 0 1 1 7.89062-1.3164 9.57021 9.57021 0 0 0 1.728 3.49609c1.7876 2.71826 4.48877 6.82666 1.78223 13.33985-.63913 1.53805-1.00882 2.46581-2.5767 2.46581z" fill="#e37066"/><path d="m328.34 362.304c55.66-41.46408 71.66-115.39538 71.66-138.304h-48c0 46.8801-31.26211 86.12915-69.23935 102.84111z" fill="#0a4b69"/><path d="m151.98 256h-15.98c0-16 0-8-8-24s8-24 16-8c6.99 13.99 7.87 15.75 7.98 32z" fill="#f5a971"/><path d="m28.56839 378.27887a7.31 7.31 0 0 1 6.67996-10.27887h80.00108a7.31 7.31 0 0 1 6.68 4.34113l25.50222 57.38a7.31 7.31 0 0 1 -6.68 10.27887h-80.00108a7.31 7.31 0 0 1 -6.68-4.34113l-25.50222-57.38" fill="#537ec2"/><path d="m121.92939 372.34113 25.50222 57.38a7.31 7.31 0 0 1 -6.67996 10.27887h-.00108a7.31 7.31 0 0 1 -6.68-4.34113l-25.50222-57.38a7.31 7.31 0 0 1 6.68-10.27887h.00108a7.31 7.31 0 0 1 6.67996 4.34113z" fill="#435e99"/><circle cx="84" cy="404" fill="#e7f2da" r="12"/><rect fill="#435e99" height="16" rx="8" width="160" x="48" y="440"/><rect fill="#537ec2" height="16" rx="8" width="72" x="136" y="440"/><path d="m324.668 425.78174a4.00077 4.00077 0 0 1 -3.32471-6.21826c.49805-.74756 12.29639-18.42481 20.94531-28.728a3.99987 3.99987 0 0 1 6.127 5.14355c-8.36719 9.96827-19.92676 27.2876-20.415 28.02a3.99616 3.99616 0 0 1 -3.3326 1.78271z" fill="#133852"/><path d="m197.8042 340a4.00039 4.00039 0 0 1 -2.3501-7.23975c2.73584-1.98242 5.59522-3.88769 8.498-5.66357a4 4 0 1 1 4.1748 6.82422c-2.72656 1.668-5.41113 3.457-7.97949 5.31787a3.98153 3.98153 0 0 1 -2.34321.76123z" fill="#133852"/><path d="m171.481 365.06885a4 4 0 0 1 -3.08545-6.54248c2.67871-3.25342 5.45459-6.38086 8.25-9.29541a4.00009 4.00009 0 1 1 5.77345 5.53804c-2.65625 2.769-5.29688 5.74414-7.84766 8.84229a3.99246 3.99246 0 0 1 -3.09034 1.45756z" fill="#133852"/><path d="m328.90918 360.83105a3.98866 3.98866 0 0 1 -3.00244-1.35546c-2.80908-3.1875-5.72608-6.23145-8.6709-9.04688a3.99989 3.99989 0 0 1 5.52832-5.78223c3.10889 2.97217 6.18555 6.18213 9.14453 9.54a4 4 0 0 1 -2.99951 6.64453z" fill="#133852"/><path d="m306.1958 340.00049a3.98016 3.98016 0 0 1 -2.34375-.76172 125.25446 125.25446 0 0 0 -13.99463-8.77979 4 4 0 0 1 3.81055-7.03418 133.08329 133.08329 0 0 1 14.87842 9.33643 4.00037 4.00037 0 0 1 -2.35059 7.23926z" fill="#133852"/></g></svg>