<svg height="511pt" viewBox="-10 0 511 511.99989" width="511pt" xmlns="http://www.w3.org/2000/svg"><path d="m490.5 267c0 135.308594-109.691406 245-245 245s-245-109.691406-245-245 109.691406-245 245-245 245 109.691406 245 245zm0 0" fill="#91e0e8"/><path d="m183.5 263c1.578125 0 3.171875.183594 4.734375.542969l.90625.207031.273437-.890625c2.710938-8.886719 10.785157-14.859375 20.085938-14.859375.734375 0 1.460938.050781 2.1875.125-2.050781-3.039062-4.390625-5.910156-7.03125-8.53125-12.84375-12.753906-31.210938-18.703125-49.128906-15.921875-1.769532.277344-3.152344 1.667969-3.414063 3.4375-2.453125 16.566406 2.558594 33.449219 13.453125 45.980469 3.746094-6.175782 10.484375-10.089844 17.933594-10.089844zm0 0" fill="#37c47a"/><path d="m179.746094 263.347656c-6.046875-10.902344-8.496094-23.660156-6.632813-36.238281.195313-1.324219 1.023438-2.441406 2.171875-3.03125-6.445312-1.261719-13.132812-1.433594-19.757812-.402344-1.769532.273438-3.152344 1.667969-3.414063 3.4375-2.453125 16.5625 2.558594 33.445313 13.453125 45.976563 3.105469-5.113282 8.261719-8.671875 14.179688-9.742188zm0 0" fill="#2bb381"/><path d="m124.617188 287.691406 14.097656 7.742188c.324218.0625.644531.132812.964844.210937l1.023437.261719.203125-1.035156c1.460938-7.328125 6.691406-13.144532 13.421875-15.601563l-5.230469-2.875c-7.769531-4.261719-19.199218-2.679687-25.402344 3.523438-1.804687 1.808593-3.003906 3.890625-3.644531 6.054687 1.640625.382813 3.179688.957032 4.566407 1.71875zm0 0" fill="#ffc987"/><path d="m104.648438 309.105469c3.039062 0 5.9375.625 8.378906 1.804687l1 .480469c2.109375-9.367187 10.480468-16.390625 20.472656-16.390625 1.75 0 3.492188.21875 5.179688.644531l1.023437.261719.09375-.472656-15.699219-8.617188c-7.765625-4.265625-19.195312-2.679687-25.398437 3.523438-5.648438 5.648437-5.503907 13.917968-.046875 19.324218 1.625-.359374 3.304687-.558593 4.996094-.558593zm0 0" fill="#ffaf68"/><path d="m358.746094 17.929688c-.433594-2.878907-2.691406-5.136719-5.570313-5.574219-29.167969-4.425781-59.011719 5.363281-79.832031 26.183593-20.066406 20.066407-29.878906 48.503907-26.609375 76.640626l65.066406-65.0625c1.226563-1.226563 2.859375-1.902344 4.597657-1.902344 1.734374 0 3.367187.675781 4.59375 1.902344 2.535156 2.535156 2.535156 6.660156 0 9.191406l-65.0625 65.0625c28.136718 3.265625 56.570312-6.546875 76.636718-26.609375 20.820313-20.820313 30.609375-50.664063 26.179688-79.832031zm0 0" fill="#37c47a"/><path d="m266.839844 113.464844-10.90625 10.902344c3.832031.441406 7.664062.648437 11.484375.613281-.4375-3.839844-.621094-7.6875-.578125-11.515625zm0 0" fill="#2bb381"/><path d="m269.476562 92.4375c3.988282-16.421875 12.382813-31.703125 24.570313-43.890625 17.332031-17.328125 40.910156-27.007813 65.144531-27.21875-.128906-1.132813-.269531-2.265625-.441406-3.398437-.4375-2.878907-2.695312-5.136719-5.574219-5.574219-29.164062-4.425781-59.011719 5.363281-79.832031 26.183593-20.066406 20.066407-29.878906 48.503907-26.609375 76.640626zm0 0" fill="#2bb381"/><path d="m150.390625 59.394531c-1.226563-1.226562-1.902344-2.859375-1.902344-4.59375 0-1.738281.675781-3.371093 1.902344-4.597656s2.859375-1.902344 4.597656-1.902344c1.734375 0 3.367188.675781 4.59375 1.902344l52.835938 52.835937c2.980469-27.867187-6.828125-55.941406-26.695313-75.808593-20.820312-20.820313-50.664062-30.609375-79.832031-26.183594-2.878906.4375-5.136719 2.695313-5.574219 5.574219-4.425781 29.164062 5.363282 59.011718 26.183594 79.832031 20.257812 20.257813 49.054688 30.066406 77.457031 26.511719zm0 0" fill="#37c47a"/><path d="m212.417969 103.035156c0-.015625.003906-.027344.003906-.046875-.015625 0-.035156 0-.054687 0zm0 0" fill="#2bb381"/><path d="m191.4375 100.441406c-16.609375-3.9375-32.078125-12.363281-44.390625-24.671875-19.851563-19.855469-29.664063-47.910156-26.699219-75.7578122-4.808594-.03125-9.644531.3046872-14.457031 1.0351562-2.875.4375-5.136719 2.695313-5.574219 5.574219-4.425781 29.164062 5.363282 59.011718 26.1875 79.832031 20.257813 20.257813 49.050782 30.066406 77.457032 26.511719zm0 0" fill="#2bb381"/><path d="m228.148438 138.566406v102.164063c2.222656-.878907 4.707031-1.347657 7.296874-1.347657 2.75 0 5.378907.527344 7.703126 1.511719v-47.585937l14.921874-14.921875c2.929688-2.929688 2.929688-7.675781 0-10.605469-2.929687-2.929688-7.679687-2.929688-10.605468 0l-4.316406 4.316406v-33.53125l78.550781-78.546875c2.929687-2.929687 2.929687-7.679687 0-10.609375-2.929688-2.925781-7.675781-2.925781-10.605469 0l-75.445312 75.445313-75.355469-75.359375c-2.929688-2.925782-7.679688-2.925782-10.605469 0-2.929688 2.929687-2.929688 7.679687 0 10.609375zm0 0" fill="#0f9390"/><path d="m323.367188 224.015625c-16.195313 8.082031-35.503907 7.972656-51.644532-.292969-1.589844-.816406-2.46875-2.574218-2.164062-4.335937 3.101562-17.863281 14.628906-33.355469 30.824218-41.4375 16.195313-8.082031 35.503907-7.972657 51.644532.292969 1.59375.816406 2.46875 2.574218 2.164062 4.335937-3.105468 17.867187-14.625 33.359375-30.824218 41.4375zm0 0" fill="#37c47a"/><path d="m312.632812 187.984375c12.832032-6.402344 27.609376-7.640625 41.226563-3.78125.109375-.542969.238281-1.078125.332031-1.625.304688-1.761719-.570312-3.519531-2.164062-4.335937-16.140625-8.261719-35.445313-8.375-51.644532-.292969-16.195312 8.082031-27.71875 23.574219-30.824218 41.4375-.304688 1.765625.574218 3.519531 2.164062 4.335937 3.355469 1.71875 6.847656 3.0625 10.417969 4.074219 3.503906-17.175781 14.789063-31.980469 30.492187-39.8125zm0 0" fill="#2bb381"/><path d="m168.429688 337.648438c8.085937 3.90625 21.953124 7.722656 30.902343 8.507812l82.976563 7.28125c.503906.042969.996094.066406 1.488281.066406 4.214844 0 8.054687-1.605468 10.816406-4.515625 2.796875-2.949219 4.214844-6.953125 3.988281-11.28125-.488281-9.324219-8.414062-17.949219-17.667968-19.222656l-44.453125-6.121094c-8.351563-1.148437-15.503907-8.929687-15.945313-17.347656-.199218-3.804687 1.042969-7.324219 3.5-9.914063 2.429688-2.558593 5.8125-3.964843 9.527344-3.964843.371094 0 .746094.011719 1.121094.042969l75.578125 5.660156c8.671875.648437 20.984375 5.90625 27.445312 11.726562l.597657.539063c-1.417969-10.78125-10.636719-19.105469-21.804688-19.105469-1.289062 0-2.550781.117188-3.777344.328125-3.367187-7.835937-11.152344-13.328125-20.222656-13.328125-2.21875 0-4.359375.332031-6.378906.941406-1.90625-10.210937-10.855469-17.941406-21.621094-17.941406-2.0625 0-4.054688.289062-5.945312.820312l-11.230469-8.660156c-6.53125-5.039062-17.222657-5.039062-23.757813 0l-7.550781 5.820313c-2.058594-.636719-4.246094-.980469-6.515625-.980469-9.910156 0-18.292969 6.554688-21.042969 15.566406-1.59375-.367187-3.25-.566406-4.957031-.566406-9.714844 0-17.949219 6.296875-20.867188 15.027344-.375-.015625-.753906-.027344-1.132812-.027344-10.671875 0-19.5625 7.597656-21.574219 17.675781-1.734375-.441406-3.554687-.675781-5.425781-.675781-10.40625 0-19.121094 7.230469-21.40625 16.9375zm0 0" fill="#bf7e52"/><path d="m143.550781 325.640625c.511719-11.695313 10.152344-21.023437 21.972657-21.023437 1.875 0 3.691406.238281 5.429687.675781 2.007813-10.078125 10.902344-17.675781 21.570313-17.675781.382812 0 .761718.011718 1.136718.03125 2.914063-8.734376 11.152344-15.03125 20.863282-15.03125 1.707031 0 3.367187.203124 4.960937.570312 2.75-9.011719 11.128906-15.570312 21.039063-15.570312 2.269531 0 4.457031.347656 6.519531.984374l7.550781-5.824218c1.128906-.867188 2.386719-1.578125 3.71875-2.144532l-10.988281-8.472656c-6.53125-5.039062-17.222657-5.039062-23.757813 0l-7.550781 5.824219c-2.058594-.640625-4.246094-.984375-6.515625-.984375-9.910156 0-18.292969 6.554688-21.042969 15.566406-1.59375-.367187-3.25-.566406-4.957031-.566406-9.714844 0-17.949219 6.296875-20.867188 15.027344-.375-.015625-.753906-.027344-1.132812-.027344-10.671875 0-19.5625 7.597656-21.574219 17.675781-1.734375-.441406-3.554687-.675781-5.425781-.675781-10.40625 0-19.121094 7.230469-21.40625 16.9375zm0 0" fill="#a8683d"/><path d="m385.941406 340.652344-47.566406-42.828125c-6.582031-5.929688-19.203125-11.320313-28.039062-11.980469l-75.574219-5.660156c-8.839844-.664063-15.6875 6.035156-15.222657 14.886718.460938 8.847657 8.023438 17.078126 16.804688 18.285157l44.457031 6.117187c8.773438 1.210938 16.339844 9.4375 16.800781 18.289063.464844 8.847656-6.375 15.453125-15.203124 14.679687l-82.976563-7.28125c-8.828125-.773437-22.578125-4.558594-30.558594-8.414062l-55.398437-26.738282c-7.980469-3.851562-19.3125-1.667968-25.179688 4.851563-5.871094 6.519531-4.621094 15.839844 2.78125 20.71875l68.34375 45.03125c7.398438 4.875 20.550782 10.34375 29.226563 12.152344l126.640625 26.378906zm0 0" fill="#ffc987"/><path d="m97.429688 324.75c12.101562-.632812 22.429687 8.664062 23.066406 20.769531.15625 3.019531-.304688 5.933594-1.273438 8.609375l-28.15625-18.554687c-3.835937-2.523438-6.003906-6.246094-6.398437-10.15625zm0 0" fill="#ffe2b8"/><path d="m240.101562 294.738281-20.550781-1.453125c.476563-7.945312 6.976563-13.71875 15.210938-13.101562l26.75 2.003906c-3.75 7.960938-12.105469 13.210938-21.410157 12.550781zm0 0" fill="#ffe2b8"/><path d="m413.699219 351.460938-17.730469-15.964844c-2.046875-1.839844-5.222656-1.671875-7.0625.371094l-82.300781 91.410156c-1.839844 2.042968-1.671875 5.21875.371093 7.0625l17.730469 15.964844zm0 0" fill="#fff"/><path d="m340.09375 433.214844-9.945312-8.953125c-2.042969-1.84375-2.210938-5.019531-.371094-7.0625l70.261718-78.039063-4.070312-3.664062c-2.042969-1.839844-5.222656-1.671875-7.0625.371094l-82.300781 91.410156c-1.839844 2.042968-1.671875 5.21875.371093 7.058594l17.730469 15.964843zm0 0" fill="#eef6ff"/><path d="m461.898438 381.941406-38.800782-34.9375c-2.046875-1.839844-5.222656-1.675781-7.066406.371094l-94.601562 105.070312c-1.839844 2.046876-1.671876 5.222657.371093 7.0625l30.917969 27.835938c46.585938-22.710938 84.886719-59.757812 109.179688-105.402344zm0 0" fill="#159e97"/><path d="m342.402344 431.78125c-.460938-.414062-.8125-.902344-1.082032-1.425781l-19.886718 22.089843c-1.839844 2.046876-1.675782 5.222657.367187 7.0625l30.917969 27.835938c10.433594-5.085938 20.445312-10.898438 29.984375-17.359375zm0 0" fill="#0f9390"/><path d="m355.285156 453.617188c0 4.914062-3.984375 8.898437-8.894531 8.898437-4.914063 0-8.898437-3.984375-8.898437-8.898437 0-4.910157 3.984374-8.894532 8.898437-8.894532 4.910156 0 8.894531 3.984375 8.894531 8.894532zm0 0" fill="#ffaf10"/></svg>