<svg id="Capa_1" enable-background="new 0 0 512 512" height="512" viewBox="0 0 512 512" width="512" xmlns="http://www.w3.org/2000/svg"><g><path d="m464.886 143.821-6.845 28.963 6.845 20.695v239.198h-218.436l-74.081-9.741-82.691 9.741h-17.112l-14.18-5.887c-3.412 0-6.178-2.767-6.178-6.181l2.326-276.79 201.322-116.86z" fill="#fece85"/><path d="m464.887 143.823v49.655l-209.03-122.21-178.699 104.475c-2.843 1.662-4.591 4.71-4.591 8.005v248.928h-19.563c-3.412 0-6.178-2.767-6.178-6.181v-282.672l25.74-14.392 183.291-102.471z" fill="#fdb97e"/><path d="m485.158 181.465-226.185-132.242c-1.926-1.126-4.308-1.126-6.233 0l-226.185 132.242c-4.976 2.909-11.366 1.237-14.282-3.737l-10.834-18.486c-2.927-4.994-1.248-11.417 3.748-14.337l245.4-143.477c3.256-1.903 7.284-1.903 10.54 0l245.4 143.477c4.996 2.921 6.674 9.343 3.748 14.337l-10.834 18.486c-2.916 4.974-9.307 6.646-14.283 3.737z" fill="#e88f77"/><path d="m205.751 384.193h-75.373c-2.275 0-4.12-1.844-4.12-4.12v-139.772c0-2.275 1.844-4.12 4.12-4.12h75.373c2.275 0 4.12 1.844 4.12 4.12v139.773c-.001 2.275-1.845 4.119-4.12 4.119z" fill="#f2fbff"/><path d="m409.571 330.111h-136.025c-2.843 0-5.148-2.306-5.148-5.151v-83.628c0-2.845 2.305-5.151 5.148-5.151h60.292l7.72 4.57 7.724-4.57h60.288c2.843 0 5.148 2.306 5.148 5.151v83.628c.001 2.845-2.304 5.151-5.147 5.151z" fill="#f2fbff"/><path d="m230.773 401.279-62.709 11.664-62.709-11.664v-28.307c0-1.707 1.383-3.091 3.089-3.091h119.24c1.706 0 3.089 1.384 3.089 3.091z" fill="#e08369"/><g><path d="m333.839 236.179h15.444v93.932h-15.444z" fill="#dfeef4"/></g><path d="m255.857 105.858-7.722-3.334c-19.074 2.827-34.789 15.966-41.302 33.571l3.135 7.725-6.3 7.729c-.045.893-.068 1.791-.068 2.695v31.44h104.515v-31.44c0-.904-.023-1.802-.068-2.695l-5.559-7.729 2.456-7.554c-6.474-17.691-22.229-30.906-41.365-33.742z" fill="#f2fbff"/><g><path d="m308.046 151.549h-44.467v34.13h-15.444v-34.13h-44.467c.268-5.408 1.374-10.602 3.166-15.454l41.302.002v-33.573c2.522-.371 5.096-.568 7.722-.568s5.199.197 7.722.568v33.573l41.364.169c1.791 4.853 2.834 9.875 3.102 15.283z" fill="#dfeef4"/></g><g><path d="m320.288 193.41h-128.864c-4.265 0-7.722-3.459-7.722-7.726s3.457-7.726 7.722-7.726h128.864c4.265 0 7.722 3.459 7.722 7.726s-3.456 7.726-7.722 7.726z" fill="#fdb97e"/></g><path d="m246.45 432.676h-156.772v-28.308c0-1.706 1.383-3.09 3.09-3.09h150.593c1.706 0 3.09 1.383 3.09 3.09v28.308z" fill="#e88f77"/><g><path d="m512 398.68c0 9.653-1.077 18.97-3.189 27.79 0 0-11.128 19.943-18.602 30.259-20.32 30.33-52.924 42.918-92.194 42.918-62.58 0-103.476-36.591-103.476-99.171 0-36.702 35.311-91.816 35.311-91.816.802-.614 1.612-1.217 2.431-1.809.01-.01.02-.01.02-.02 18.66-13.51 41.59-21.47 66.38-21.47 62.579-.001 113.319 50.739 113.319 113.319z" fill="#bbf39b"/><path d="m508.811 426.47c-3.11 12.99-8.471 24.9-15.941 35.22-20.32 30.33-54.92 50.31-94.19 50.31-62.58 0-113.32-50.74-113.32-113.32 0-36.7 17.44-69.321 44.49-90.021-2.28 8.96-3.49 18.351-3.49 28.021 0 62.58 50.74 113.32 113.32 113.32 26.03 0 50.001-8.78 69.131-23.53z" fill="#9ae59c"/><g><path d="m382.46 447.942c-3.889 0-7.619-1.545-10.369-4.295l-34.259-33.788c-5.583-5.583-7.761-13.924-2.447-19.765 1.138-1.25 2.424-3.724 2.424-3.724 5.565-3.041 12.685-2.205 17.396 2.507l25.81 25.81c.806.806 2.112.804 2.916-.002l57.176-57.365c5.72-5.735 15.004-5.747 20.739-.029 5.735 5.719 5.748 15.004.029 20.739l-63.861 64.067-5.171 1.538c-2.748 2.754-10.379 4.307-10.383 4.307z" fill="#f2fbff"/></g><g><path d="m398.015 442.095-5.145 5.155c-2.75 2.76-6.48 4.31-10.37 4.31h-.01c-3.89 0-7.62-1.54-10.37-4.29l-37.36-37.36c-5.58-5.58-6.1-14.68-.78-20.52 1.14-1.25 2.43-2.26 3.83-3.02 12.36 25.29 33.865 45.305 60.205 55.725z" fill="#dfeef4"/></g></g></g></svg>