<svg clip-rule="evenodd" fill-rule="evenodd" stroke-linejoin="round" stroke-miterlimit="2" viewBox="0 0 267 267" xmlns="http://www.w3.org/2000/svg"><g transform="scale(4.167)"><path d="m37.001 16.63s11.158 5.84 14.41 14.169c1.658 4.246 1.713 10.636 1.59 14.195-.073 2.105.023 6.549.773 8.116 1.234 2.576 1.278 3.546 1.117 4.834-.093.57-.489 1.044-1.033 1.238-6.374 1.09-37.34 1.09-43.715.002-.545-.194-.942-.669-1.036-1.24-.158-1.288-.113-2.258 1.12-4.834.751-1.567.847-6.011.774-8.116-.123-3.559-.069-9.949 1.589-14.195 3.253-8.329 14.411-14.169 14.411-14.169z" fill="#fe9707"/><path d="m26.952 16.656c-3.135-1.015-4.683-3.598-5.346-6.14-1.093-4.186 0-6.497 0-6.497 1.627 2.822 3.689 2.749 4.764 2.701 1.663-.074 3.848-2.981 5.631-2.701 1.607.253 3.205 2.933 5.197 2.599 1.65-.277 4.171-2.989 4.765-2.166.747 6.192-2.01 10.422-3.898 11.695-.297.2-.661.358-1.064.483s11.158 5.84 14.41 14.169c1.658 4.246 1.713 10.636 1.59 14.195-.073 2.105.023 6.549.773 8.116 1.234 2.576 1.278 3.546 1.117 4.834-.093.57-.489 1.044-1.033 1.238-6.374 1.09-37.34 1.09-43.715.002-.545-.194-.942-.669-1.036-1.24-.023-.187-.042-.368-.053-.548-.255-.237-.43-.555-.488-.911-.142-1.209-.086-2.145 1.067-4.578.711-1.499.802-5.752.733-7.766-.117-3.405-.065-9.521 1.505-13.583 3.081-7.971 13.649-13.558 13.649-13.558h.815c.313-.179.527-.295.617-.344z" fill="#febe07"/><path d="m16.001 54.613s-3.408-1.117-3.681-2.359c-.315-1.429-.328-3.043-.399-5.786l-.815 6.185s2.808 2.726 4.895 1.96zm3.588-29.991c-2.504 3.663-5.562 6.894-6 15-.081 1.497.623 1.937.806.5.548-4.29.312-6.308 5.194-15.5zm11.566-7.622s.14-.247-.155-.278c-.395-.043-4.159-5.197-5.229-7.049-.218-.378.444-.821.444-.821.714.667 4.474 6.056 5.785 6.148 1.566.11 3.137-4.249 3.799-4.726l-1.799 6.726c.281.047.5.105.5.105s6.29 6.347 6.805 10.895c-3.106-4.377-5.632-7.569-8.805-8.5-.453-.348-3.189.647-6.185 2.701 0 0 2.295-4.359 4.84-5.201zm3.845-.205s6.538-6.154 5.5-11.081l.788-.714s2.073 10.31-6.288 11.795z" fill="#fe9707"/><path d="m22.213 14.297c-1.32-.153-2.685-.104-4.049.286-.003-.252.027-.53.09-.834.246-1.193.846-1.786.846-1.786s.86-.463.218-1.375c-.318-.452-.942-.56-1.393-.243 0 0-1.164.734-1.63 3.001-.159.772-.166 1.444-.06 2.028-1.6.87-3.177 2.306-4.643 4.558-.302.463-.171 1.083.292 1.384.462.301 1.082.17 1.384-.292 1.221-1.877 2.514-3.101 3.835-3.843.85.956 2.212 1.475 3.736 1.62.282.027.569.041.858.044-3.569 2.606-8.123 6.686-10.038 11.59-1.705 4.366-1.784 10.934-1.658 14.594.069 1.983.031 6.173-.676 7.649-1.372 2.866-1.386 3.954-1.211 5.388.002.013.004.027.006.04.153.931.8 1.705 1.689 2.02.054.019.11.034.166.043 6.423 1.097 37.629 1.097 44.051-.002.057-.009.112-.024.166-.043.888-.316 1.534-1.089 1.686-2.019.002-.012.004-.025.005-.037.18-1.434.167-2.522-1.207-5.39-.707-1.476-.744-5.666-.676-7.649.127-3.66.048-10.228-1.657-14.594-2.594-6.642-10.027-11.772-13.3-13.775 2.021-1.677 4.669-6.06 3.912-12.328-.02-.168-.082-.328-.181-.465-.41-.568-1.208-.779-2.243-.254-.55.279-1.243.778-1.947 1.237-.543.355-1.084.703-1.551.782-.728.122-1.344-.401-1.965-.883-.995-.773-1.971-1.57-2.912-1.718-.927-.146-1.967.285-2.984.965-.584.389-1.17.849-1.735 1.217-.398.258-.762.492-1.111.508-.872.039-2.535.086-3.854-2.201-.186-.323-.535-.515-.907-.5s-.704.235-.863.572c0 0-1.271 2.552-.064 7.176.318 1.219.824 2.441 1.575 3.529zm-11.545 40.265c-.646 1.541-.684 2.295-.569 3.248.038.177.154.325.32.406 6.521 1.056 36.65 1.056 43.168-.004.162-.081.28-.233.316-.425.137-1.126.053-1.983-1.031-4.245-.794-1.658-.948-6.355-.871-8.583.12-3.458.09-9.671-1.521-13.796-2.811-7.198-11.761-12.444-13.608-13.465-.174.044-.353.083-.534.119 1.06.841 2.32 2.015 3.525 3.571 1.19 1.536 2.328 3.445 3.166 5.773.187.52-.083 1.093-.602 1.28-.52.187-1.093-.083-1.28-.602-.758-2.108-1.788-3.836-2.865-5.227-2.069-2.67-4.307-4.088-5.099-4.538-.767-.002-1.776-.039-1.864-.031-2.277 1.156-4.596 3.944-4.596 3.944-.355.423-.986.478-1.409.123-.422-.355-.477-.987-.122-1.409 0 0 1.211-1.429 2.796-2.763-.32-.055-.627-.124-.923-.205-1.98 1.102-10.764 6.312-13.543 13.43-1.612 4.125-1.641 10.338-1.522 13.796.066 1.911-.037 5.638-.57 7.707.838.659 2.664 1.893 4.54 1.834.551-.017 1.013.417 1.03.969.018.551-.416 1.013-.968 1.031-2.097.065-4.161-1.1-5.364-1.938zm14.174-15.562h-2.462c-.551 0-1 .448-1 1s.449 1 1 1h2.067c-.032.328-.048.662-.048 1s.016.672.048 1h-2.067c-.551 0-1 .448-1 1s.449 1 1 1h2.462c1.075 3.513 3.98 6 7.327 6 3.296 0 6.154-2.39 7.272-5.823.17-.524-.117-1.089-.642-1.26s-1.089.117-1.26.641c-.836 2.569-2.904 4.442-5.37 4.442-2.33 0-4.297-1.649-5.215-4h5.691c.552 0 1-.448 1-1s-.448-1-1-1h-6.187c-.039-.327-.059-.661-.059-1s.02-.673.059-1h6.187c.552 0 1-.448 1-1s-.448-1-1-1h-5.691c.918-2.351 2.885-4 5.215-4 2.466 0 4.534 1.873 5.37 4.442.171.524.735.812 1.26.641s.812-.736.642-1.26c-1.118-3.433-3.976-5.823-7.272-5.823-3.347 0-6.252 2.487-7.327 6zm-5.573-22.631c.499.254 1.116.38 1.759.441.962.091 2.001.019 2.915-.147-1.479-.412-3.07-.624-4.674-.294zm15.94-.398c.869-.097 1.731-.272 2.297-.654 1.619-1.091 3.844-4.59 3.557-9.688-.18.103-.372.218-.53.324-1.032.691-2.235 1.494-3.169 1.651-1.266.213-2.443-.437-3.523-1.276-.409-.318-.807-.655-1.2-.927-.271-.188-.528-.352-.796-.394-.259-.041-.525.068-.805.205-.435.211-.876.521-1.317.837-.625.449-1.247.91-1.834 1.219-.512.27-1.011.43-1.474.451-.985.044-2.667.113-4.273-1.387-.063.965.002 2.287.431 3.931.495 1.894 1.519 3.832 3.495 4.927.716.397 1.554.681 2.529.819-1.356-1.418-3.072-3.587-3.956-6.187-.177-.523.103-1.091.625-1.269.523-.177 1.091.103 1.269.625 1.19 3.503 4.1 6.112 4.974 6.837.049-.003.594.041 1.262.055 1.952-2.758 2.605-5.731 2.605-5.731.117-.539.651-.881 1.19-.764.539.118.881.651.763 1.191 0 0-.546 2.513-2.12 5.205z"/></g></svg>