<svg id="Line" enable-background="new 0 0 62 62" height="512" viewBox="0 0 62 62" width="512" xmlns="http://www.w3.org/2000/svg"><g><circle cx="19" cy="19" r="1"/><path d="m10.515 23.515c.256 0 .512-.098.707-.293.391-.391.391-1.024 0-1.414-.195-.195-.451-.293-.707-.293s-.512.098-.707.293c-.391.391-.391 1.024 0 1.414.195.195.451.293.707.293z"/><path d="m27.485 23.515c.256 0 .512-.098.707-.293.391-.391.391-1.024 0-1.414-.195-.195-.451-.293-.707-.293s-.512.098-.707.293c-.391.391-.391 1.024 0 1.414.195.195.451.293.707.293z"/><path d="m18 8h2v4h2v-6h-6v6h2z"/><path d="m34 6h2v12h2v-14h-6v12h2z"/><path d="m26 2h2v12h2v-14h-6v12h2z"/><path d="m10 2h2v10h2v-12h-6v14h2z"/><path d="m2 6h2v10h2v-12h-6v14h2z"/><path d="m32 36h-2c0 1.103-.897 2-2 2s-2-.897-2-2h-2c0 2.206 1.794 4 4 4s4-1.794 4-4z"/><path d="m60 36h-2c0-1.103-.897-2-2-2h-.111c1.301-1.272 2.111-3.042 2.111-5v-9.528c2.548-2.101 4-5.16 4-8.472 0-6.065-4.935-11-11-11s-11 4.935-11 11c0 3.312 1.452 6.371 4 8.472v9.528c0 2.04.883 3.873 2.28 5.154-.454.12-.886.304-1.28.562-.711-.467-1.541-.717-2.408-.717l-4.592.001v-4h-2v-4h-2.049c-.479 0-.907-.286-1.1-.756-.181-.441-.081-.943.257-1.28l1.448-1.449-7.071-7.071-1.449 1.449c-.337.338-.84.438-1.318.241-.436-.18-.718-.601-.718-1.072v-2.062h-10v2.062c0 .472-.286.895-.757 1.088-.44.181-.939.083-1.27-.248l-1.458-1.458-7.071 7.071 1.449 1.449c.337.337.438.839.246 1.306-.183.444-.611.73-1.09.73h-2.049v4h-2v5.296c0 7.037 3.496 13.569 9.352 17.474l.422.281c1.393.929 2.226 2.485 2.226 4.16v4.789h12v-4h7c1.902 0 3.627-.765 4.889-2h4.696l.293.293c1.101 1.101 2.565 1.707 4.122 1.707s3.021-.606 4.121-1.707l.293-.293h10.586c1.103 0 2-.897 2-2v-16c0-1.103-.897-2-2-2zm-12.974-4h7.949c-.914 1.207-2.348 2-3.974 2s-3.062-.793-3.975-2zm.974-20h-1c-.551 0-1-.448-1-1s.449-1 1-1 1 .448 1 1zm4 14h-2v-12h2zm4 2v1c0 .342-.035.677-.101 1h-9.798c-.066-.323-.101-.658-.101-1v-1zm-14-17c0-4.963 4.038-9 9-9s9 4.037 9 9c0 2.846-1.313 5.466-3.601 7.188l-.399.299v7.513h-2v-12h1c1.654 0 3-1.346 3-3s-1.346-3-3-3-3 1.346-3 3v1h-2v-1c0-1.654-1.346-3-3-3s-3 1.346-3 3 1.346 3 3 3h1v12h-2v-7.513l-.399-.3c-2.288-1.721-3.601-4.341-3.601-7.187zm12 1v-1c0-.552.449-1 1-1s1 .448 1 1-.449 1-1 1zm2 24v14h-10v-13.534c.409-.298.897-.466 1.414-.466zm-13.408-.001c.513 0 .999.168 1.408.467v13.534h-6v-2h4v-2h-4v-2h4v-2h-2.586l1-1-.708-.707c-.094-.094-.179-.194-.266-.293h2.56v-2h-3.703c-.192-.583-.297-1.197-.297-1.828v-.172zm-38.592-7.999h.049c1.293 0 2.447-.772 2.95-1.996.489-1.189.217-2.545-.691-3.454l-.035-.035 4.243-4.243.043.044c.905.904 2.257 1.173 3.472.672 1.197-.49 1.97-1.639 1.97-2.926v-.062h6v.062c0 1.286.769 2.433 1.996 2.938 1.19.487 2.545.218 3.454-.692l.035-.035 4.243 4.243-.035.035c-.909.909-1.181 2.265-.681 3.481.491 1.196 1.645 1.968 2.938 1.968l.033 2h-6.043c-.5-4.493-4.317-8-8.941-8s-8.442 3.507-8.941 8h-6.059zm19.899 2c-.465-2.279-2.484-4-4.899-4s-4.434 1.721-4.899 4h-2.021c.488-3.386 3.401-6 6.92-6s6.432 2.614 6.92 6h-.92zm-2.083 0h-5.631c.414-1.161 1.514-2 2.816-2s2.401.839 2.815 2zm-19.816 5.296v-3.296h14v4.027c-2.247.25-4 2.16-4 4.473 0 2.293 1.723 4.19 3.943 4.466-.34 2.849-2.169 5.329-4.852 6.479l-.085.036c-.043-.03-.08-.065-.124-.094l-.422-.281c-5.297-3.533-8.46-9.443-8.46-15.81zm29 20.704h-13v2h4v2h-8v-2.789c0-1.572-.533-3.061-1.466-4.268 3.334-1.726 5.466-5.146 5.466-8.943v-1h-1.5c-1.378 0-2.5-1.121-2.5-2.5s1.122-2.5 2.5-2.5h1.5v-6h7 11v4.172c0 1.754.573 3.42 1.63 4.784l-1.63 1.63v5.414h-4c-1.103 0-2-.897-2-2h-2c0 2.206 1.794 4 4 4h4v1c0 2.757-2.243 5-5 5zm29-2h-11.414l-.879.879c-1.446 1.445-3.968 1.445-5.414 0l-.879-.879h-4.099c.297-.622.503-1.294.605-2h18.08c1.103 0 2-.897 2-2v-12h2z"/><path d="m48 38h6v2h-6z"/><path d="m48 42h6v2h-6z"/><path d="m48 46h2v2h-2z"/><path d="m52 46h2v2h-2z"/></g></svg>