<svg height="512" viewBox="0 0 48 48" width="512" xmlns="http://www.w3.org/2000/svg"><g id="Line"><path d="m45.71 15.29-13-13a1 1 0 0 0 -.71-.29h-16a1 1 0 0 0 -.71.29l-13 13a1 1 0 0 0 -.29.71v16a1 1 0 0 0 .29.71l13 13a1 1 0 0 0 .71.29h16a1 1 0 0 0 .71-.29l13-13a1 1 0 0 0 .29-.71v-16a1 1 0 0 0 -.29-.71z" fill="#c00"/><g fill="#fafafa"><path d="m10 20h4a1 1 0 0 0 0-2h-4a3.5 3.5 0 0 0 0 7h1.5a1.5 1.5 0 0 1 0 3h-3.5a1 1 0 0 0 0 2h3.5a3.5 3.5 0 0 0 0-7h-1.5a1.5 1.5 0 0 1 0-3z"/><path d="m23 18h-6a1 1 0 0 0 0 2h2v9a1 1 0 0 0 2 0v-9h2a1 1 0 0 0 0-2z"/><path d="m30 18h-2a3 3 0 0 0 -3 3v6a3 3 0 0 0 3 3h2a3 3 0 0 0 3-3v-6a3 3 0 0 0 -3-3zm1 9a1 1 0 0 1 -1 1h-2a1 1 0 0 1 -1-1v-6a1 1 0 0 1 1-1h2a1 1 0 0 1 1 1z"/><path d="m38.5 18h-3.5a1 1 0 0 0 -1 1v10a1 1 0 0 0 2 0v-4h2.5a3.5 3.5 0 0 0 0-7zm0 5h-2.5v-3h2.5a1.5 1.5 0 0 1 0 3z"/></g></g></svg>