<?xml version="1.0" encoding="UTF-8" standalone="no"?>
<!-- Created with Inkscape (http://www.inkscape.org/) -->

<svg
   version="1.1"
   id="svg9"
   xml:space="preserve"
   width="682.66669"
   height="682.66669"
   viewBox="0 0 682.66669 682.66669"
   xmlns="http://www.w3.org/2000/svg"
   xmlns:svg="http://www.w3.org/2000/svg"><defs
     id="defs13"><clipPath
       clipPathUnits="userSpaceOnUse"
       id="clipPath27"><path
         d="M 0,512 H 512 V 0 H 0 Z"
         id="path25" /></clipPath></defs><g
     id="g15"
     transform="matrix(1.3333333,0,0,-1.3333333,0,682.66667)"><g
       id="g17"
       transform="translate(347.9902,292.55)"><path
         d="M 0,0 V 76.62"
         style="fill:none;stroke:#000000;stroke-width:15;stroke-linecap:round;stroke-linejoin:round;stroke-miterlimit:10;stroke-dasharray:none;stroke-opacity:1"
         id="path19" /></g><g
       id="g21"><g
         id="g23"
         clip-path="url(#clipPath27)"><g
           id="g29"
           transform="translate(104.2002,163.79)"><path
             d="M 0,0 H -63.74 C -81.94,0 -96.7,14.75 -96.7,32.96 v 274.57 c 0,18.2 14.76,32.96 32.96,32.96 h 274.57 c 18.21,0 32.96,-14.76 32.96,-32.96 v -72.15"
             style="fill:none;stroke:#000000;stroke-width:15;stroke-linecap:round;stroke-linejoin:round;stroke-miterlimit:10;stroke-dasharray:none;stroke-opacity:1"
             id="path31" /></g><g
           id="g33"
           transform="translate(167.4902,88.6399)"><path
             d="M 0,0 C 48.23,-27.09 107.24,-22.55 150.5,9.2"
             style="fill:none;stroke:#000000;stroke-width:15;stroke-linecap:round;stroke-linejoin:round;stroke-miterlimit:10;stroke-dasharray:none;stroke-opacity:1"
             id="path35" /></g><g
           id="g37"
           transform="translate(143.0801,106)"><path
             d="m 0,0 c -52.63,46.61 -62.71,126.38 -21.03,184.96 44.59,62.7 131.57,77.37 194.28,32.77 50.24,-35.74 69.64,-98.69 52.41,-154.55"
             style="fill:none;stroke:#000000;stroke-width:15;stroke-linecap:round;stroke-linejoin:round;stroke-miterlimit:10;stroke-dasharray:none;stroke-opacity:1"
             id="path39" /></g><g
           id="g41"
           transform="translate(410.2642,128.4485)"><path
             d="m 0,0 c 16.962,-4.143 36.186,-13.066 54.704,-26.232 42.209,-30.028 46.463,-57.76 32.065,-78.003 -14.398,-20.242 -41.996,-25.314 -84.205,4.703 -18.507,13.166 -33.241,28.404 -42.724,43.071"
             style="fill:none;stroke:#000000;stroke-width:15;stroke-linecap:round;stroke-linejoin:round;stroke-miterlimit:10;stroke-dasharray:none;stroke-opacity:1"
             id="path43" /></g><g
           id="g45"
           transform="translate(366.666,166.5935)"><path
             d="m 0,0 -46.898,-65.929 c -9.227,-12.971 -6.191,-30.965 6.779,-40.191 12.97,-9.226 30.964,-6.191 40.19,6.779 l 46.899,65.93 c 9.226,12.97 6.191,30.964 -6.78,40.19 C 27.22,16.005 9.226,12.97 0,0 Z"
             style="fill:none;stroke:#000000;stroke-width:15;stroke-linecap:round;stroke-linejoin:round;stroke-miterlimit:10;stroke-dasharray:none;stroke-opacity:1"
             id="path47" /></g><g
           id="g49"
           transform="translate(292.7832,290.6328)"><path
             d="m 0,0 c 44.42,-31.598 54.815,-93.223 23.217,-137.644 -31.598,-44.42 -93.223,-54.815 -137.644,-23.217 -44.42,31.598 -54.815,93.223 -23.217,137.644 C -106.046,21.203 -44.421,31.598 0,0 Z"
             style="fill:none;stroke:#000000;stroke-width:15;stroke-linecap:round;stroke-linejoin:round;stroke-miterlimit:10;stroke-dasharray:none;stroke-opacity:1"
             id="path51" /></g><g
           id="g53"
           transform="translate(235.5698,196.2356)"><path
             d="m 0,0 v 0 c -8.816,0 -15.962,7.146 -15.962,15.962 v 48.883 c 0,8.816 7.146,15.962 15.962,15.962 8.815,0 15.962,-7.146 15.962,-15.962 V 15.962 C 15.962,7.146 8.815,0 0,0 Z"
             style="fill:none;stroke:#000000;stroke-width:15;stroke-linecap:round;stroke-linejoin:round;stroke-miterlimit:10;stroke-dasharray:none;stroke-opacity:1"
             id="path55" /></g><g
           id="g57"
           transform="translate(251.5317,159.3235)"><path
             d="m 0,0 c 0,8.815 -7.146,15.962 -15.962,15.962 -8.815,0 -15.962,-7.147 -15.962,-15.962 0,-8.816 7.147,-15.962 15.962,-15.962 C -7.146,-15.962 0,-8.816 0,0 Z"
             style="fill:none;stroke:#000000;stroke-width:15;stroke-linecap:round;stroke-linejoin:round;stroke-miterlimit:10;stroke-dasharray:none;stroke-opacity:1"
             id="path59" /></g><g
           id="g61"
           transform="translate(44.5234,417.8704)"><path
             d="M 0,0 53.872,53.872"
             style="fill:none;stroke:#000000;stroke-width:15;stroke-linecap:round;stroke-linejoin:round;stroke-miterlimit:10;stroke-dasharray:none;stroke-opacity:1"
             id="path63" /></g><g
           id="g65"
           transform="translate(63.7275,388.6899)"><path
             d="M 0,0 83.052,83.052"
             style="fill:none;stroke:#000000;stroke-width:15;stroke-linecap:round;stroke-linejoin:round;stroke-miterlimit:10;stroke-dasharray:none;stroke-opacity:1"
             id="path67" /></g><g
           id="g69"
           transform="translate(265.9956,369.9844)"><path
             d="M 0,0 53.872,53.872"
             style="fill:none;stroke:#000000;stroke-width:15;stroke-linecap:round;stroke-linejoin:round;stroke-miterlimit:10;stroke-dasharray:none;stroke-opacity:1"
             id="path71" /></g></g></g></g></svg>
