<svg id="Capa_1" enable-background="new 0 0 506.065 506.065" height="512" viewBox="0 0 506.065 506.065" width="512" xmlns="http://www.w3.org/2000/svg"><g><g fill="#e1d3ce"><path d="m90.464 48.748h55.417l-2.691 2.691c-2.929 2.929-2.929 7.677 0 10.606 1.464 1.465 3.384 2.197 5.303 2.197s3.839-.732 5.303-2.197l15.495-15.494c1.407-1.406 2.197-3.314 2.197-5.303s-.79-3.897-2.197-5.303l-15.494-15.495c-2.929-2.93-7.678-2.929-10.606 0-2.929 2.929-2.929 7.678 0 10.606l2.691 2.691h-55.418c-4.142 0-7.5 3.358-7.5 7.5s3.358 7.501 7.5 7.501z"/><path d="m240.966 194.624c1.464 1.464 3.384 2.197 5.303 2.197s3.839-.732 5.303-2.197c2.929-2.929 2.929-7.678 0-10.606l-2.691-2.691h76.977c4.142 0 7.5-3.358 7.5-7.5s-3.358-7.5-7.5-7.5h-76.977l2.691-2.691c2.929-2.929 2.929-7.678 0-10.606-2.929-2.929-7.678-2.929-10.606 0l-15.494 15.494c-2.929 2.929-2.929 7.678 0 10.606z"/><path d="m325.858 436.664h-66.977l2.691-2.691c2.929-2.929 2.929-7.678 0-10.606-2.929-2.929-7.678-2.929-10.606 0l-15.494 15.494c-2.929 2.929-2.929 7.678 0 10.607l15.494 15.494c1.464 1.464 3.384 2.197 5.303 2.197s3.839-.732 5.303-2.197c2.929-2.929 2.929-7.678 0-10.607l-2.691-2.691h66.977c4.142 0 7.5-3.358 7.5-7.5s-3.358-7.5-7.5-7.5z"/><path d="m261.731 45.43h96.55l-2.691 2.691c-2.929 2.929-2.929 7.677 0 10.606 1.464 1.465 3.384 2.197 5.303 2.197 1.92 0 3.839-.732 5.303-2.197l13.298-13.297h36.924c34.042 0 61.737 27.695 61.737 61.737s-27.695 61.737-61.737 61.737c-4.142 0-7.5 3.358-7.5 7.5s3.358 7.5 7.5 7.5c42.313 0 76.737-34.424 76.737-76.737s-34.423-76.737-76.736-76.737h-36.924l-13.298-13.298c-2.929-2.929-7.678-2.929-10.607 0s-2.929 7.678 0 10.607l2.691 2.691h-96.55c-4.142 0-7.5 3.358-7.5 7.5s3.358 7.5 7.5 7.5z"/><path d="m416.419 300.768h-36.924l-13.298-13.297c-2.929-2.93-7.678-2.929-10.607 0s-2.929 7.678 0 10.606l2.691 2.691h-56.029c-4.142 0-7.5 3.358-7.5 7.5s3.358 7.5 7.5 7.5h56.029l-2.691 2.691c-2.929 2.929-2.929 7.678 0 10.606 1.464 1.464 3.384 2.197 5.303 2.197 1.92 0 3.839-.732 5.303-2.197l13.298-13.298h36.924c34.042 0 61.737 27.695 61.737 61.737s-27.695 61.737-61.737 61.737c-4.142 0-7.5 3.358-7.5 7.5s3.358 7.5 7.5 7.5c42.313 0 76.737-34.424 76.737-76.737s-34.423-76.736-76.736-76.736z"/><path d="m257.328 316.332c4.142 0 7.5-3.358 7.5-7.5s-3.358-7.5-7.5-7.5h-82.458l-13.297-13.297c-2.929-2.929-7.678-2.929-10.606 0-2.929 2.929-2.929 7.678 0 10.607l2.691 2.691h-64.01c-34.042 0-61.737-27.695-61.737-61.737s27.695-61.737 61.737-61.737c4.142 0 7.5-3.358 7.5-7.5s-3.358-7.5-7.5-7.5c-42.313 0-76.737 34.424-76.737 76.737s34.424 76.737 76.737 76.737h64.011l-2.691 2.691c-2.929 2.929-2.929 7.678 0 10.607 1.464 1.465 3.384 2.197 5.303 2.197s3.839-.732 5.303-2.197l13.297-13.298h82.457z"/></g><g><path d="m34.41 409.221h152.109c7.732 0 14 6.268 14 14v41.887c0 7.732-6.268 14-14 14h-152.109c-7.732 0-14-6.268-14-14v-41.887c0-7.732 6.268-14 14-14z" fill="#01d0fb"/></g><g><path d="m88.905 82.495h-54.495c-7.732 0-14-6.268-14-14v-54.495c0-7.732 6.268-14 14-14h54.495c7.732 0 14 6.268 14 14v54.495c0 7.732-6.268 14-14 14z" fill="#ffd15b"/></g><g><path d="m238.588 82.495c-22.78 0-41.247-18.467-41.247-41.247-.001-22.781 18.466-41.248 41.247-41.248 22.78 0 41.247 18.467 41.247 41.247 0 22.781-18.467 41.248-41.247 41.248z" fill="#01d0fb"/></g><g><path d="m34.41 409.221h152.109c7.732 0 14 6.268 14 14v41.887c0 7.732-6.268 14-14 14h-152.109c-7.732 0-14-6.268-14-14v-41.887c0-7.732 6.268-14 14-14z" fill="#01d0fb"/></g><g><path d="m88.905 82.495h-54.495c-7.732 0-14-6.268-14-14v-54.495c0-7.732 6.268-14 14-14h54.495c7.732 0 14 6.268 14 14v54.495c0 7.732-6.268 14-14 14z" fill="#ffd15b"/></g><g><path d="m238.588 82.495c-22.78 0-41.247-18.467-41.247-41.247-.001-22.781 18.466-41.248 41.247-41.248 22.78 0 41.247 18.467 41.247 41.247 0 22.781-18.467 41.248-41.247 41.248z" fill="#01d0fb"/></g><g><path d="m186.518 409.221h-16v36.887c0 7.732-6.268 14-14 14h-136.108v5c0 7.732 6.268 14 14 14h152.109c7.732 0 14-6.268 14-14v-41.887c-.001-7.732-6.269-14-14.001-14z" fill="#01c0fa"/></g><g><path d="m88.905 0h-16.588c.378 1.268.588 2.609.588 4v54.495c0 7.732-6.268 14-14 14h-37.908c1.722 5.781 7.071 10 13.413 10h54.495c7.732 0 14-6.268 14-14v-54.495c0-7.732-6.268-14-14-14z" fill="#ffc344"/></g><g><path d="m238.588 0c-.995 0-1.979.048-2.957.117 8.698 7.562 14.204 18.7 14.204 31.13 0 21.785-16.892 39.613-38.291 41.13 7.242 6.296 16.693 10.117 27.043 10.117 22.78 0 41.247-18.467 41.247-41.247.001-22.78-18.466-41.247-41.246-41.247z" fill="#01c0fa"/></g><g><path d="m416.107 183.726-45.314 45.314c-5.467 5.467-14.332 5.467-19.799 0l-45.313-45.314c-5.467-5.467-5.467-14.332 0-19.799l45.313-45.314c5.467-5.467 14.332-5.467 19.799 0l45.314 45.314c5.467 5.467 5.467 14.331 0 19.799z" fill="#fd8087"/></g><g><path d="m414.956 162.776-43.012-43.012c-6.103-6.103-15.997-6.103-22.1 0l-.112.112 31.738 31.738c6.103 6.103 6.103 15.997 0 22.1l-42.9 42.9 11.275 11.274c6.103 6.103 15.997 6.103 22.1 0l43.012-43.012c6.102-6.103 6.102-15.997-.001-22.1z" fill="#fe646f"/></g><g><path d="m418.694 454.064-47.901 47.901c-5.467 5.467-14.332 5.467-19.799 0l-47.901-47.901c-5.467-5.467-5.467-14.332 0-19.799l47.901-47.901c5.467-5.467 14.332-5.467 19.799 0l47.901 47.901c5.467 5.467 5.467 14.332 0 19.799z" fill="#fd8087"/></g><g><path d="m418.694 454.064-47.901 47.901c-5.467 5.467-14.332 5.467-19.799 0l-47.901-47.901c-5.467-5.467-5.467-14.332 0-19.799l47.901-47.901c5.467-5.467 14.332-5.467 19.799 0l47.901 47.901c5.467 5.467 5.467 14.332 0 19.799z" fill="#fd8087"/></g><g><path d="m417.104 432.676-44.722-44.722c-6.345-6.345-16.633-6.345-22.978 0l-.117.117 32.999 32.999c6.345 6.345 6.345 16.633 0 22.978l-44.605 44.605 11.723 11.722c6.345 6.345 16.633 6.345 22.978 0l44.722-44.721c6.345-6.346 6.345-16.633 0-22.978z" fill="#fe646f"/></g><g><path d="m278.575 264.267c22.78 0 41.247 18.467 41.247 41.247 0 22.78-18.467 41.247-41.247 41.247-22.78 0-41.247-18.467-41.247-41.247 0-22.78 18.467-41.247 41.247-41.247z" fill="#ffd15b"/></g><g><path d="m278.575 264.267c22.78 0 41.247 18.467 41.247 41.247 0 22.78-18.467 41.247-41.247 41.247-22.78 0-41.247-18.467-41.247-41.247 0-22.78 18.467-41.247 41.247-41.247z" fill="#ffd15b"/></g><g><path d="m278.575 264.267c-.996 0-1.979.048-2.957.117 8.698 7.562 14.204 18.7 14.204 31.13 0 21.785-16.892 39.613-38.291 41.13 7.242 6.297 16.693 10.117 27.043 10.117 22.78 0 41.247-18.467 41.247-41.247.002-22.78-18.466-41.247-41.246-41.247z" fill="#ffc344"/></g><g><path d="m88.134 163.036 47.236-47.236c5.467-5.467 14.332-5.467 19.799 0l47.236 47.236c5.467 5.467 5.467 14.332 0 19.799l-47.236 47.236c-5.467 5.467-14.332 5.467-19.799 0l-47.236-47.236c-5.468-5.467-5.468-14.331 0-19.799z" fill="#97da7b"/></g><g><path d="m88.134 163.036 47.236-47.236c5.467-5.467 14.332-5.467 19.799 0l47.236 47.236c5.467 5.467 5.467 14.332 0 19.799l-47.236 47.236c-5.467 5.467-14.332 5.467-19.799 0l-47.236-47.236c-5.468-5.467-5.468-14.331 0-19.799z" fill="#97da7b"/></g><g><path d="m200.928 161.56-44.282-44.282c-6.283-6.283-16.47-6.283-22.753 0l-.115.115 32.675 32.675c6.283 6.283 6.283 16.47 0 22.753l-44.167 44.167 11.607 11.607c6.283 6.283 16.47 6.283 22.753 0l44.282-44.282c6.283-6.284 6.283-16.47 0-22.753z" fill="#80d261"/></g></g></svg>