<svg id="Layer_2" height="512" viewBox="0 0 512 512" width="512" xmlns="http://www.w3.org/2000/svg"><g><g><g><path d="m466 442h-420v-272c0-4.418 3.582-8 8-8h404c4.418 0 8 3.582 8 8z" fill="#6e83b7"/><path d="m134 110h244v384h-244z" fill="#80d6fb" transform="matrix(0 1 -1 0 558 46)"/><path d="m251 227h10v384h-10z" fill="#46bee8" transform="matrix(0 1 -1 0 675 163)"/><path d="m251 237h10v420h-10z" fill="#466089" transform="matrix(0 1 -1 0 703 191)"/></g><g><path d="m475 502h-438c-14.912 0-27-12.088-27-27v-23h492v23c0 14.912-12.088 27-27 27z" fill="#6e83b7"/><path d="m293.5 472h-75l-12.5-20h100z" fill="#466089"/></g></g><g><path d="m385.292 230.692c-11.763-10.847-25.887-22.229-41.721-33.692 15.833-11.463 29.958-22.845 41.721-33.692 29.092-26.827 40.079-46.949 32.655-59.808-7.424-12.858-30.343-13.404-68.123-1.624-15.273 4.763-32.197 11.313-50.038 19.292-2.011-19.446-4.806-37.372-8.319-52.984-8.687-38.608-20.619-58.184-35.467-58.184s-26.78 19.576-35.467 58.184c-3.513 15.612-6.308 33.538-8.319 52.984-17.841-7.979-34.765-14.529-50.038-19.292-37.778-11.781-60.698-11.235-68.123 1.624-7.424 12.858 3.563 32.98 32.655 59.808 11.763 10.847 25.887 22.229 41.721 33.692-15.833 11.463-29.958 22.845-41.721 33.692-29.092 26.828-40.079 46.95-32.655 59.808 3.875 6.712 11.972 10.069 24.203 10.069 11.198 0 25.862-2.815 43.919-8.446 15.273-4.763 32.197-11.313 50.038-19.292 2.011 19.446 4.806 37.372 8.319 52.984 8.688 38.609 20.62 58.185 35.468 58.185s26.78-19.576 35.467-58.184c3.513-15.612 6.308-33.538 8.319-52.984 17.841 7.979 34.765 14.529 50.038 19.292 18.06 5.632 32.72 8.446 43.919 8.446 12.228 0 20.328-3.358 24.203-10.069 7.425-12.859-3.562-32.981-32.654-59.809zm-31.3-115.45c19.197-5.986 31.837-7.817 39.845-7.817 7.816 0 11.218 1.746 11.986 3.076 1.554 2.692-.81 15.578-30.022 42.516-12.329 11.369-27.369 23.367-44.324 35.44-9.051-6.24-18.561-12.47-28.429-18.618-.39-11.618-1.031-22.968-1.909-33.924 18.93-8.649 36.844-15.681 52.853-20.673zm-81.242 110.77c-5.599 3.232-11.187 6.362-16.75 9.399-5.563-3.037-11.151-6.167-16.75-9.399-5.598-3.232-11.108-6.505-16.519-9.804-.151-6.336-.231-12.744-.231-19.208s.079-12.872.231-19.208c5.411-3.299 10.921-6.572 16.519-9.804 5.599-3.232 11.187-6.362 16.75-9.399 5.563 3.037 11.151 6.167 16.75 9.399 5.598 3.232 11.108 6.505 16.519 9.804.151 6.336.231 12.744.231 19.208s-.079 12.872-.231 19.208c-5.411 3.299-10.921 6.572-16.519 9.804zm15.941 6.884c-.291 6.375-.66 12.649-1.104 18.804-5.557-2.695-11.176-5.506-16.847-8.444 3-1.682 6.004-3.384 9.01-5.12 3.006-1.735 5.985-3.483 8.941-5.24zm-47.431 10.36c-5.672 2.938-11.29 5.749-16.847 8.444-.444-6.155-.813-12.43-1.104-18.804 2.956 1.757 5.936 3.505 8.941 5.24 3.006 1.736 6.01 3.438 9.01 5.12zm-32.692-35.892c-5.378-3.441-10.63-6.9-15.74-10.364 5.111-3.464 10.363-6.923 15.74-10.364-.043 3.439-.068 6.893-.068 10.364s.024 6.925.068 10.364zm14.741-46.26c.291-6.375.66-12.649 1.104-18.804 5.557 2.695 11.176 5.506 16.847 8.444-3 1.682-6.004 3.384-9.01 5.12-3.006 1.735-5.985 3.483-8.941 5.24zm47.431-10.36c5.672-2.938 11.29-5.749 16.847-8.444.444 6.155.813 12.43 1.104 18.804-2.956-1.757-5.936-3.505-8.941-5.24-3.006-1.736-6.01-3.438-9.01-5.12zm32.692 35.892c5.378 3.441 10.63 6.9 15.74 10.364-5.111 3.464-10.363 6.923-15.74 10.364.043-3.439.068-6.893.068-10.364s-.024-6.925-.068-10.364zm-69.241-115.379c8.723-38.767 18.701-47.257 21.809-47.257s13.086 8.49 21.809 47.257c3.682 16.362 6.553 35.386 8.53 56.106-9.929 4.719-20.08 9.839-30.338 15.311-10.259-5.472-20.409-10.592-30.338-15.311 1.976-20.719 4.847-39.744 8.528-56.106zm-97.992 81.759c-29.212-26.938-31.576-39.824-30.022-42.516 1.555-2.692 13.896-7.087 51.831 4.742 16.009 4.992 33.923 12.024 52.854 20.671-.878 10.957-1.519 22.306-1.909 33.924-9.868 6.148-19.378 12.378-28.429 18.618-16.956-12.072-31.996-24.07-44.325-35.439zm21.809 125.742c-37.936 11.83-50.275 7.433-51.831 4.742-1.554-2.692.81-15.578 30.022-42.516 12.329-11.369 27.369-23.367 44.324-35.44 9.051 6.24 18.561 12.47 28.429 18.618.39 11.618 1.031 22.968 1.909 33.924-18.93 8.648-36.844 15.68-52.853 20.672zm119.801 43.985c-8.723 38.767-18.701 47.257-21.809 47.257s-13.086-8.49-21.809-47.257c-3.682-16.362-6.553-35.386-8.53-56.106 9.929-4.719 20.08-9.839 30.338-15.311 10.259 5.472 20.409 10.592 30.338 15.311-1.976 20.719-4.847 39.744-8.528 56.106zm128.014-39.243c-1.555 2.692-13.896 7.087-51.831-4.742-16.009-4.992-33.923-12.024-52.854-20.671.878-10.957 1.519-22.306 1.909-33.924 9.868-6.148 19.378-12.378 28.429-18.618 16.955 12.072 31.995 24.071 44.324 35.44 29.213 26.937 31.577 39.823 30.023 42.515z" fill="#edeff1"/><g><path d="m256 197v126l-109.116-63v-126z" fill="#ffb0aa"/><path d="m365.116 134v126l-109.116 63v-126z" fill="#ff7b7b"/><path d="m365.119 134-109.119-63-109.119 63 109.119 63z" fill="#ffe352"/></g></g></g></svg>