<svg id="Layer_1" enable-background="new 0 0 512 512" height="512" viewBox="0 0 512 512" width="512" xmlns="http://www.w3.org/2000/svg"><g clip-rule="evenodd" fill-rule="evenodd"><g><path d="m262.309 211.404c-3.485 3.484-9.134 3.484-12.619 0-3.484-3.484-3.484-9.134 0-12.619l41.981-41.98c3.484-3.484 9.134-3.484 12.618 0 3.484 3.485 3.484 9.134 0 12.619z" fill="#a79ba7"/><path d="m256 224.615c10.751 0 19.52-8.769 19.52-19.52s-8.769-19.52-19.52-19.52-19.521 8.769-19.521 19.52c.001 10.751 8.77 19.52 19.521 19.52z" fill="#9facba"/><path d="m256 185.575c10.781 0 19.52 8.739 19.52 19.52s-8.74 19.521-19.52 19.521c-.854 0-1.696-.056-2.522-.162 9.59-1.237 16.999-9.432 16.999-19.358s-7.409-18.121-16.999-19.358c.826-.107 1.668-.163 2.522-.163z" fill="#8d9ca8"/><path d="m256 16.001c104.434 0 189.095 84.66 189.095 189.094h-79.157c0-60.716-49.222-109.939-109.938-109.939s-109.939 49.222-109.939 109.939h-79.156c0-104.434 84.661-189.094 189.095-189.094z" fill="#6cf5c2"/><path d="m201.021 109.87-39.585-68.562c-28.695 16.603-52.622 40.529-69.225 69.224l68.563 39.585c9.653-16.683 23.564-30.595 40.247-40.247z" fill="#00e499"/><path d="m161.437 41.307 39.585 68.562c16.173-9.358 34.95-14.714 54.978-14.714v-79.154c-34.449 0-66.746 9.211-94.563 25.306z" fill="#ffe177"/><path d="m255.999 16.001v79.155c20.028 0 38.806 5.356 54.978 14.714l39.585-68.563c-27.816-16.095-60.113-25.306-94.563-25.306z" fill="#ffd064"/><path d="m350.563 41.307-39.585 68.563c16.683 9.653 30.594 23.563 40.247 40.247l68.564-39.585c-16.604-28.696-40.531-52.623-69.226-69.225z" fill="#fe646f"/><path d="m419.788 110.531-68.564 39.585c9.358 16.173 14.714 34.95 14.714 54.979h79.157c0-34.449-9.212-66.747-25.307-94.564z" fill="#fd4755"/></g><g><path d="m110.744 404.937h30.873c4.334 0 7.868 3.535 7.868 7.868v75.325c0 4.334-3.535 7.868-7.868 7.868h-30.873c-4.334 0-7.868-3.535-7.868-7.868v-75.325c0-4.334 3.535-7.868 7.868-7.868z" fill="#fe646f"/><path d="m129.886 404.937h11.732c4.334 0 7.868 3.535 7.868 7.868v75.326c0 4.333-3.535 7.868-7.868 7.868h-11.732c4.334 0 7.868-3.535 7.868-7.868v-75.326c0-4.334-3.534-7.868-7.868-7.868z" fill="#fd4755"/><path d="m197.291 347.229h30.873c4.333 0 7.868 3.535 7.868 7.868v133.033c0 4.334-3.535 7.868-7.868 7.868h-30.873c-4.334 0-7.868-3.534-7.868-7.868v-133.033c0-4.333 3.535-7.868 7.868-7.868z" fill="#ffe177"/><path d="m216.432 347.23h11.732c4.334 0 7.868 3.534 7.868 7.868v133.034c0 4.333-3.535 7.868-7.868 7.868h-11.732c4.334 0 7.868-3.534 7.868-7.868v-133.035c0-4.333-3.534-7.867-7.868-7.867z" fill="#ffd064"/><path d="m283.838 366.656h30.874c4.334 0 7.869 3.535 7.868 7.869v113.605c.001 4.334-3.534 7.87-7.868 7.87-10.291 0-20.582 0-30.874 0-4.334 0-7.869-3.535-7.868-7.87 0-45.81 0-67.794 0-113.605-.001-4.334 3.534-7.869 7.868-7.869z" fill="#6cf5c2"/><path d="m302.979 366.656h11.732c4.334 0 7.869 3.535 7.868 7.869v113.605c.001 4.334-3.534 7.87-7.868 7.87h-11.732c4.334 0 7.869-3.535 7.868-7.87 0-45.81 0-67.795 0-113.605.001-4.334-3.533-7.869-7.868-7.869z" fill="#00e499"/><path d="m370.383 286.089h30.874c4.334 0 7.868 3.534 7.868 7.868v194.173c0 4.334-3.534 7.868-7.868 7.868h-30.874c-4.334 0-7.868-3.535-7.868-7.868v-194.173c0-4.333 3.535-7.868 7.868-7.868z" fill="#8ac9fe"/><path d="m389.525 286.089h11.732c4.334 0 7.868 3.534 7.868 7.868v194.173c0 4.333-3.534 7.868-7.868 7.868h-11.732c4.334 0 7.868-3.535 7.868-7.868v-194.173c0-4.333-3.535-7.868-7.868-7.868z" fill="#60b7ff"/><path d="m131.087 362.929c-3.469 2.709-8.478 2.094-11.188-1.375-2.709-3.469-2.094-8.478 1.375-11.188l86.547-67.391c2.16-1.687 4.916-2.084 7.342-1.308l.001-.005 81.899 26.544 67.733-68.312-6.463.567c-4.401.38-8.277-2.88-8.656-7.281s2.881-8.277 7.281-8.656l28.173-2.471c4.401-.38 8.277 2.881 8.656 7.281.06.7.028 1.387-.086 2.049l-3.088 27.62c-.483 4.384-4.429 7.546-8.813 7.063s-7.546-4.429-7.062-8.813l.596-5.328-70.405 71.007c-2.046 2.054-5.143 2.916-8.094 1.969l-82.552-26.756z" fill="#a79ba7"/></g></g></svg>