<svg enable-background="new 0 0 512 512" height="512" viewBox="0 0 512 512" width="512" xmlns="http://www.w3.org/2000/svg"><g id="_x32_6_paris"><g><path d="m128.688 494.819c-2.876 0-5.208 2.329-5.208 5.208.204.521-.212 5.961 5.208 5.961h254.624c2.876 0 5.208-2.329 5.208-5.208-.204-.521.212-5.961-5.208-5.961-.542 0-22.718.735-23.256.753-13.771-23.041-26.09-48.603-36.769-76.056 7.77-1.346 13.709-8.091 13.709-16.24 0-9.114-7.413-16.525-16.527-16.525h-8.876c-6.275-19.325-11.819-39.775-16.683-61.053h8.025c2.876 0 5.208-2.329 5.208-5.208s-2.332-5.208-5.208-5.208h-10.418c-2.087-9.73-4.051-19.599-5.831-29.651-.504-2.828-3.194-4.735-6.037-4.216-2.833.498-4.722 3.204-4.221 6.037 1.668 9.412 3.472 18.693 5.406 27.831h-51.534c15.416-72.538 22.972-155.634 22.884-251.697h5.707c-.051 71.362 4.28 137.16 12.878 195.644.417 2.848 3.077 4.822 5.91 4.394 2.846-.417 4.814-3.062 4.394-5.91-8.526-58.008-12.787-123.374-12.734-194.266 4.939-.673 8.772-4.876 8.772-9.999-.168-.521 2.028-20.049-16.853-24.661v-17.568c0-2.879-2.332-5.208-5.208-5.208s-5.208 2.329-5.208 5.208v17.568c-18.881 4.61-16.686 24.139-16.855 24.661 0 5.116 3.822 9.314 8.753 9.997.096 96.334-7.496 179.5-23.075 251.837h-10.503c-2.876 0-5.208 2.329-5.208 5.208s2.332 5.208 5.208 5.208h8.175c-4.881 21.279-10.465 41.62-16.78 61.053h-8.927c-9.114 0-16.527 7.41-16.527 16.525 0 8.143 5.931 14.885 13.693 16.238-10.553 27.224-22.858 52.786-36.732 76.058-.533-.019-22.853-.754-23.376-.754zm115.715-444.66c0-6.419 5.226-11.642 11.647-11.642s11.644 5.223 11.644 11.642l.282 3.011c-3.506-.001-20.326-.044-23.574.28v-3.291zm-39.1 445.382c2.278-25.97 24.145-46.405 50.698-46.405 26.551 0 48.418 20.434 50.696 46.405zm34.365-108.79c1.507-10.959 2.943-22.391 4.28-34.107h24.207c1.337 11.716 2.773 23.147 4.28 34.107zm43.291 0c-1.519-10.948-2.962-22.372-4.311-34.107h12.157c3.078 11.678 6.366 23.066 9.888 34.107zm1.264-61.052c1.248 5.533 2.455 11.114 3.799 16.53-.921 0-65.456 0-63.889 0 1.355-5.441 2.649-10.963 3.908-16.53zm-62.806 26.946h12.037c-1.35 11.735-2.793 23.159-4.311 34.107h-17.66c3.539-11.084 6.852-22.45 9.934-34.107zm-35.898 50.631c0-3.367 2.741-6.108 6.111-6.108 75.117.018 95.503.001 128.839 0 3.369 0 6.111 2.741 6.111 6.108s-2.741 6.108-6.111 6.108h-128.839c-3.369 0-6.111-2.741-6.111-6.108zm14.38 16.524h112.281c10.374 27.187 22.329 52.644 35.701 75.741h-30.797c-2.313-31.712-28.789-56.821-61.082-56.821s-58.772 25.109-61.085 56.821h-30.685c13.47-23.309 25.411-48.761 35.667-75.741z"/></g></g></svg>