<?xml version="1.0" encoding="iso-8859-1"?>
<!-- Generator: Adobe Illustrator 19.0.0, SVG Export Plug-In . SVG Version: 6.00 Build 0)  -->
<svg version="1.1" id="Capa_1" xmlns="http://www.w3.org/2000/svg" xmlns:xlink="http://www.w3.org/1999/xlink" x="0px" y="0px"
	 viewBox="0 0 512 512" style="enable-background:new 0 0 512 512;" xml:space="preserve">
<path style="fill:#1D2123;" d="M512,256c0,3.845-0.084,7.68-0.261,11.483c-1.661,37.794-11.525,73.456-27.846,105.263
	c-17.721,34.513-43.05,64.481-73.78,87.677l-0.031,0.031C367.208,492.816,313.856,512,256,512s-111.208-19.184-154.081-51.545
	l-0.031-0.031c-28.891-21.807-53.008-49.601-70.51-81.533c-18.286-33.343-29.362-71.199-31.128-111.47
	C0.084,263.638,0,259.824,0,256C0,114.615,114.615,0,256,0S512,114.615,512,256z"/>
<path style="fill:#234EA8;" d="M511.739,267.483c-1.661,37.794-11.525,73.456-27.846,105.263
	c-17.721,34.513-43.05,64.481-73.78,87.677l-0.031,0.031C367.208,492.816,313.856,512,256,512s-111.208-19.184-154.081-51.545
	l-0.031-0.031c-28.891-21.807-53.008-49.601-70.51-81.533c-18.286-33.343-29.362-71.199-31.128-111.47
	C13.918,138.25,123.204,37.616,256,37.616C388.807,37.616,498.103,138.282,511.739,267.483z"/>
<path style="fill:#FFFFFF;" d="M496.818,294.808c0,27.282-4.545,53.499-12.925,77.939c-17.721,34.513-43.05,64.481-73.78,87.677
	l-0.031,0.031C367.208,492.816,313.856,512,256,512s-111.208-19.184-154.081-51.545l-0.031-0.031
	c-28.891-21.807-53.008-49.601-70.51-81.533c-9.78-26.175-15.13-54.502-15.13-84.083c0-132.713,107.572-240.295,240.285-240.295
	C389.235,54.512,496.818,162.095,496.818,294.808z"/>
<path style="fill:#234EA8;" d="M482.231,294.808c0,65.4-27.752,124.311-72.119,165.616l-0.031,0.031
	C367.208,492.816,313.856,512,256,512s-111.208-19.184-154.081-51.545l-0.031-0.031c-44.377-41.305-72.129-100.216-72.129-165.616
	C29.759,169.859,131.051,68.566,256,68.566S482.231,169.859,482.231,294.808z"/>
<circle style="fill:#FFFFFF;" cx="256" cy="294.808" r="144.792"/>
<path style="fill:#16529A;" d="M388.976,294.803c0,25.922-7.417,50.113-20.254,70.571c-10.661,16.989-25.067,31.406-42.046,42.089
	c-4.012,2.529-8.174,4.845-12.465,6.926c-3.628,1.783-7.353,3.394-11.163,4.834c-14.62,5.529-30.489,8.559-47.051,8.559
	c-16.563,0-32.43-3.03-47.051-8.559c-3.736-1.419-7.396-2.999-10.97-4.748c-4.354-2.102-8.58-4.45-12.657-7.011
	c-18.067-11.365-33.22-26.956-44.052-45.386c-11.6-19.742-18.248-42.729-18.248-67.274c0-69.429,53.208-126.426,121.069-132.455
	c3.927-0.342,7.897-0.522,11.91-0.522c5.026,0,9.988,0.277,14.866,0.821C337.303,170.041,388.976,226.388,388.976,294.803z"/>
<path style="fill:#DE0029;" d="M368.72,365.375c-10.661,16.989-25.067,31.406-42.046,42.089c-4.012,2.529-8.174,4.845-12.465,6.926
	l2.081-18.739l-7.47-28.28l-16.541-16.541l-21.343-12.272h-25.079l-32.549,13.873l-21.877,36.283l6.542,25.761
	c-4.354-2.102-8.58-4.45-12.657-7.011c-18.067-11.365-33.22-26.956-44.052-45.386c18.334-17.075,59.591-57.349,71.511-84.882
	c13.841-31.961,29.4-92.384,31.31-114.848c3.927-0.342,7.897-0.522,11.91-0.522c5.026,0,9.988,0.277,14.866,0.821l-0.459,0.897
	l8.004,57.093l22.944,65.097l33.081,45.354L368.72,365.375z"/>
<g>
	<path style="fill:#FFFFFF;" d="M255.997,333.584c-39.485,0-71.499,28.706-71.499,64.115c0,3.319,0.278,6.584,0.821,9.765
		c3.708,2.331,7.54,10.59,11.481,12.553c3.941,1.963,7.995-2.368,12.146-0.793c-4.023-7.502-6.307-16.072-6.307-25.174
		c0-29.464,23.894-53.358,53.358-53.358c29.464,0,53.358,23.894,53.358,53.358c0,9.103-2.284,17.672-6.307,25.174
		c5.052-1.915,12.951,1.505,17.69-0.985c3.048-1.601,3.033-8.95,5.937-10.775c0.544-3.181,0.821-6.446,0.821-9.765
		C327.496,362.29,295.481,333.584,255.997,333.584z"/>
	<path style="fill:#FFFFFF;" d="M274.232,157.673c-0.013-0.542-0.025-1.067-0.038-1.601h-6.366c0,0-2.887,71.756,33.392,139.264
		h-90.45c36.279-67.508,33.392-139.264,33.392-139.264h-6.366c-0.013,0.534-0.025,1.058-0.038,1.601
		c-3.202,139.264-102.981,201.16-102.981,201.16l5.336,14.407c29.303-19.061,50.373-43.394,65.523-68.832h100.716
		c15.15,25.438,36.22,49.771,65.523,68.832l5.336-14.407C377.213,358.833,277.434,296.937,274.232,157.673z"/>
</g>
<g>
	<polygon style="fill:#CA9A45;" points="260.623,408.989 255.997,401.694 251.37,408.989 255.997,416.283 	"/>
	<path style="fill:#CA9A45;" d="M249.166,399.029c-0.579,0-1.087-0.375-1.278-0.922c-3.183-9.045-7.62-9.128-10.806-9.128
		c-3.29,0-3.913,3.913-2.046,5.78c0.644,0.644,1.372,0.717,2.051,0.536c1.131-0.301,2.099,0.883,1.657,1.966
		c-0.955,2.335-3.142,4.748-8.153,3.545c-8.893-2.135-10.138-14.762-0.534-17.786c9.008-2.836,18.015,5.749,20.42,14.31
		C250.716,398.186,250.053,399.029,249.166,399.029L249.166,399.029z"/>
	<path style="fill:#CA9A45;" d="M262.827,399.029c0.579,0,1.087-0.375,1.278-0.922c3.183-9.045,7.62-9.128,10.806-9.128
		c3.29,0,3.913,3.913,2.045,5.78c-0.644,0.644-1.372,0.717-2.05,0.536c-1.131-0.301-2.099,0.883-1.657,1.966
		c0.955,2.335,3.142,4.748,8.153,3.545c8.893-2.135,10.138-14.762,0.534-17.786c-9.008-2.836-18.015,5.749-20.42,14.31
		C261.277,398.186,261.94,399.029,262.827,399.029L262.827,399.029z"/>
	<path style="fill:#CA9A45;" d="M256.174,399.029c0,0,3.557-11.205,9.605-20.099c0,0-2.312-16.363-9.782-23.833
		c-7.47,7.47-9.782,23.833-9.782,23.833c6.047,8.893,9.605,20.099,9.605,20.099H256.174z"/>
</g>
<g>
	<path style="fill:#FFFFFF;" d="M119.152,430.378c3.165-3.042-5.353-10.805,0.767-16.687c3.924-3.771,8.708-1.778,11.85,1.492
		c1.332,1.387,4.741,5.456,2.701,7.417c-0.707,0.678-2.598,1.59-3.704,0.439c-0.905-0.941-0.389-2.393-2.45-4.539
		c-1.785-1.857-3.272-1.887-4.082-1.108c-2.615,2.514,5.849,10.328-0.741,16.663c-3.767,3.62-8.447,2.834-12.092-0.958
		c-3.292-3.426-4.383-7.913-2.658-9.571c0.889-0.855,2.952-1.327,3.907-0.333c1.182,1.23,0,3.874,2.337,6.307
		C116.145,430.704,117.897,431.584,119.152,430.378z"/>
	<path style="fill:#FFFFFF;" d="M126.015,443.711c0.068-0.086,0.186-0.179,0.303-0.27l18.948-13.279
		c1.096-0.754,2.763-0.235,4.077,0.793c1.314,1.027,2.22,2.519,1.753,3.765l-8.286,21.614c-0.061,0.137-0.121,0.274-0.189,0.359
		c-0.827,1.057-3.059,0.556-4.288-0.405c-0.715-0.559-1.108-1.234-0.809-1.969l1.821-4.332l-6.031-4.716l-3.764,2.813
		c-0.642,0.467-1.391,0.249-2.107-0.31C126.215,446.813,125.189,444.768,126.015,443.711z M141.084,445.819l3.902-9.291
		l-8.076,6.029L141.084,445.819z"/>
	<path style="fill:#FFFFFF;" d="M162.326,442.498c0.626-1.021,2.098-0.715,3.304,0.025c1.207,0.74,2.148,1.912,1.521,2.933
		l-12.06,19.673c-0.606,0.99-2.116,0.745-3.324,0.005c-1.206-0.74-2.11-1.974-1.503-2.963L162.326,442.498z"/>
	<path style="fill:#FFFFFF;" d="M176.258,476.287l-1.006-14.284l-5.162,11.201c-0.486,1.054-2.014,0.99-3.299,0.397
		c-1.284-0.592-2.326-1.712-1.84-2.766l9.641-20.919c0.501-1.088,2.014-0.99,3.298-0.397c1.845,0.851,2.461,1.334,2.605,4.315
		l0.645,12.64l5.162-11.201c0.502-1.088,1.999-0.957,3.284-0.365c1.285,0.591,2.357,1.645,1.856,2.732l-9.657,20.952
		c-0.485,1.053-2.012,0.99-3.298,0.397C177.3,478.445,176.353,477.728,176.258,476.287z"/>
	<path style="fill:#FFFFFF;" d="M214.925,463.253c1.149,0.336,1.271,1.732,0.935,2.883c-0.388,1.324-1.316,2.301-2.36,1.995
		l-4.808-1.405l-5.53,18.916c-0.326,1.115-1.847,1.274-3.206,0.877c-1.358-0.397-2.555-1.352-2.229-2.466l5.531-18.915l-4.808-1.405
		c-1.045-0.306-1.302-1.628-0.914-2.953c0.335-1.149,1.19-2.261,2.34-1.925L214.925,463.253z"/>
	<path style="fill:#FFFFFF;" d="M219.606,480.026l9.3,1.578c0.859,0.146,1.548,1.293,1.329,2.58c-0.23,1.359-1.24,2.109-2.099,1.962
		l-9.301-1.578c-1.001-0.17-1.53-1.18-1.299-2.539C217.755,480.743,218.605,479.857,219.606,480.026z"/>
	<path style="fill:#FFFFFF;" d="M249.092,472.795c-2.066-0.08-3.307,1.033-3.403,3.498l-0.374,9.606
		c-0.096,2.465,1.055,3.671,3.085,3.75c2.03,0.079,3.308-1.032,3.403-3.497l0.048-1.232l-2.139-0.084
		c-1.087-0.043-1.662-1.118-1.62-2.241c0.042-1.051,0.701-2.151,1.789-2.109l6.09,0.237c1.087,0.043,1.671,0.9,1.634,1.843
		l-0.148,3.806c-0.242,6.234-4.248,8.401-9.25,8.207c-5.002-0.195-8.791-2.666-8.547-8.9l0.374-9.606
		c0.243-6.234,4.285-8.4,9.033-8.215c5.184,0.203,8.997,2.964,8.818,7.568c-0.085,2.174-1.011,2.647-2.932,2.573
		c-1.522-0.06-2.775-0.508-2.762-1.814C252.206,474.878,252.174,472.917,249.092,472.795z"/>
	<path style="fill:#FFFFFF;" d="M272.471,478.31l5.414-0.553c1.083-0.11,1.803,0.875,1.922,2.029
		c0.099,0.975-0.288,2.181-1.479,2.303l-5.415,0.553l0.625,6.136l9.675-0.987c1.083-0.11,1.814,0.983,1.951,2.318
		c0.118,1.156-0.259,2.47-1.449,2.591l-12.851,1.311c-1.227,0.125-2.514-0.327-2.631-1.483l-2.339-22.922
		c-0.118-1.156,1.05-1.858,2.278-1.982l12.851-1.311c1.191-0.121,1.824,1.091,1.943,2.245c0.136,1.335-0.359,2.554-1.443,2.663
		l-9.675,0.986L272.471,478.31z"/>
	<path style="fill:#FFFFFF;" d="M289.801,466.586c-0.217-0.881,0.259-1.821,1.28-2.074l7.291-1.808
		c4.825-1.195,9.109-0.351,10.533,5.39c0.978,3.944-0.259,6.643-2.49,8.206l6.227,6.719c0.193,0.177,0.289,0.414,0.333,0.59
		c0.34,1.374-1.124,3.307-2.745,3.709c-0.704,0.174-1.443,0.059-2.015-0.586l-7.147-8.172l-2.324,0.577l2.104,8.489
		c0.279,1.127-0.956,2.031-2.329,2.372c-1.373,0.34-2.887,0.117-3.166-1.009L289.801,466.586z M296.074,468.359l1.624,6.55
		l3.487-0.864c1.972-0.489,2.969-1.596,2.358-4.062c-0.611-2.465-2.009-2.979-3.982-2.49L296.074,468.359z"/>
	<path style="fill:#FFFFFF;" d="M332.292,469.171c-0.121,0.918-0.69,1.437-1.325,1.706c-0.601,0.256-1.321,0.325-2.048-0.274
		l-5.64-4.463l5.461,12.857c0.455,1.069-0.621,2.156-1.925,2.709c-1.302,0.554-2.832,0.573-3.285-0.496l-8.582-20.204
		c-0.808-1.903,0.197-3.158,1.498-3.711c1.87-0.794,2.757-0.934,5.148,0.889l5.992,4.549l0.886-7.472
		c0.348-2.986,1.065-3.527,2.935-4.321c1.336-0.568,2.903-0.405,3.711,1.497l8.582,20.204c0.453,1.068-0.622,2.156-1.925,2.708
		c-1.302,0.554-2.832,0.573-3.286-0.496l-5.32-12.522L332.292,469.171z"/>
	<path style="fill:#FFFFFF;" d="M352.403,467.394c-0.059-0.093-0.106-0.234-0.151-0.377l-6.099-22.323
		c-0.34-1.287,0.712-2.68,2.125-3.57c1.411-0.89,3.122-1.239,4.137-0.378l17.547,15.104c0.109,0.103,0.216,0.207,0.275,0.299
		c0.716,1.136-0.511,3.067-1.831,3.9c-0.767,0.484-1.535,0.625-2.126,0.097l-3.464-3.179l-6.476,4.085l1.376,4.495
		c0.222,0.761-0.236,1.393-1.003,1.877C355.392,468.255,353.12,468.53,352.403,467.394z M359.479,453.922l-7.427-6.814l2.948,9.639
		L359.479,453.922z"/>
	<path style="fill:#FFFFFF;" d="M363.559,432.771c-0.752-0.932,0.031-2.215,1.132-3.104c1.101-0.888,2.522-1.381,3.275-0.449
		l14.489,17.963c0.728,0.904-0.008,2.243-1.11,3.133c-1.1,0.888-2.567,1.325-3.297,0.421L363.559,432.771z"/>
	<path style="fill:#FFFFFF;" d="M400.061,430.943l-13.8-3.822l8.835,8.608c0.832,0.81,0.259,2.229-0.727,3.242
		c-0.986,1.012-2.39,1.622-3.222,0.811l-16.5-16.076c-0.858-0.836-0.259-2.229,0.727-3.242c1.418-1.454,2.08-1.875,4.939-1.014
		l12.129,3.613l-8.835-8.608c-0.858-0.835-0.233-2.203,0.753-3.216c0.988-1.014,2.34-1.672,3.196-0.837l16.526,16.102
		c0.831,0.81,0.259,2.229-0.727,3.242C402.443,430.682,401.452,431.336,400.061,430.943z"/>
	<path style="fill:#FFFFFF;" d="M105.947,145.873c-1.45-1.586-1.267-4.316,0.952-6.347l13.131-12.009
		c8.374-7.657,18.568-9.757,28.315,0.899l0.289,0.318c9.747,10.657,6.609,20.983-2.145,28.99l-6.28,5.743l12.53,13.702
		c1.857,2.03,0.31,5.308-2.164,7.57c-2.473,2.262-5.875,3.511-7.732,1.481L105.947,145.873z M121.006,142.47l12.241,13.384
		l6.28-5.744c3.553-3.248,3.853-7.251-0.092-11.564l-0.638-0.698c-3.946-4.313-7.959-4.371-11.511-1.123L121.006,142.47z"/>
	<path style="fill:#FFFFFF;" d="M181.322,151.087c-0.091-0.242-0.13-0.594-0.169-0.947l-3.316-54.727
		c-0.164-3.149,2.952-5.869,6.658-7.25c3.705-1.38,7.841-1.36,9.778,1.13l33.368,43.535c0.201,0.293,0.401,0.585,0.491,0.825
		c1.111,2.981-2.672,6.867-6.137,8.158c-2.014,0.75-3.866,0.706-4.979-0.807l-6.49-9.05l-16.999,6.331l1.01,11.091
		c0.146,1.872-1.225,3.117-3.238,3.867C187.835,154.533,182.433,154.067,181.322,151.087z M204.268,123.276l-13.922-19.403
		l2.16,23.783L204.268,123.276z"/>
	<path style="fill:#FFFFFF;" d="M246.763,79.009c0.121-2.146,1.86-3.941,4.349-3.799l17.767,1.011
		c11.758,0.67,20.865,5.58,20.067,19.569c-0.548,9.614-5.236,14.856-11.377,16.832l9.392,19.565c0.315,0.535,0.366,1.14,0.342,1.569
		c-0.191,3.347-4.859,6.699-8.807,6.473c-1.717-0.097-3.308-0.877-4.149-2.733l-10.459-23.501l-5.664-0.323l-1.178,20.686
		c-0.157,2.747-3.582,3.93-6.929,3.74c-3.348-0.191-6.616-1.754-6.461-4.501L246.763,79.009z M259.717,87.41l-0.909,15.964
		l8.497,0.485c4.807,0.274,7.838-1.535,8.179-7.543c0.342-6.007-2.464-8.148-7.27-8.422L259.717,87.41z"/>
	<path style="fill:#FFFFFF;" d="M323.105,91.326c1.037-2.641,4.596-2.537,7.718-1.311c3.122,1.224,5.803,3.568,4.767,6.21
		l-19.968,50.897c-1.004,2.561-4.628,2.616-7.75,1.393c-3.121-1.225-5.74-3.729-4.734-6.29L323.105,91.326z"/>
	<path style="fill:#FFFFFF;" d="M361.499,161.79c6.544-8.085-15.773-23.83-3.116-39.466c8.114-10.024,19.95-6.746,28.303,0.015
		c3.541,2.868,12.755,11.433,8.537,16.644c-1.46,1.805-5.638,4.506-8.578,2.126c-2.405-1.947-1.62-5.515-7.098-9.951
		c-4.745-3.84-8.252-3.471-9.929-1.4c-5.409,6.682,16.801,22.56,3.169,39.398c-7.79,9.622-19.024,9.155-28.713,1.311
		c-8.753-7.087-12.642-17.313-9.072-21.722c1.839-2.272,6.548-3.99,9.087-1.934c3.141,2.542,1.142,9.108,7.356,14.14
		C354.52,163.441,358.903,164.997,361.499,161.79z"/>
</g>
<g>
</g>
<g>
</g>
<g>
</g>
<g>
</g>
<g>
</g>
<g>
</g>
<g>
</g>
<g>
</g>
<g>
</g>
<g>
</g>
<g>
</g>
<g>
</g>
<g>
</g>
<g>
</g>
<g>
</g>
</svg>
